<?xml version="1.0" encoding="utf-8" ?><svg xmlns="http://www.w3.org/2000/svg" xmlns:xlink="http://www.w3.org/1999/xlink" width="3600" height="850" viewBox="0 0 3600 850"><path fill="#2A2777" fill-opacity="0.26666668" d="M416.319 806.102C398.069 808.31 346.904 795.327 325.786 792.741C301.4 789.754 265.782 771.121 243.749 760.505C221.638 749.85 201.55 739.349 183.817 721.827C162.509 702.374 138.012 683.192 120.144 659.969C87.3547 617.353 64.6439 560.673 48.9364 509.444C45.505 497.725 42.7781 475.456 40.5053 462.975C39.2881 457.661 40.2932 444.48 38.9208 439.939C30.2007 419.665 39.9159 404.413 40.5714 387.113C41.7908 354.928 43.5081 333.064 57.4122 303.042C60.8873 295.538 61.2974 285.359 64.3245 277.861C67.6227 269.692 73.9632 261.313 77.8669 253.266C91.7355 219.262 110.267 199.074 136.557 174.038C156.397 155.144 176.917 134.402 198.344 116.769C210.838 106.488 225.069 98.9869 239.288 91.3232C289.458 61.2855 343.29 51.2869 400.819 47.7566C423.888 46.341 418.162 39.1044 445.354 47.724C454.507 50.6254 471.79 46.1735 488.343 52.0715C509.221 59.5099 535.022 61.5427 555.579 72.6184C588.669 88.6659 621.111 112.425 650.72 134.234C660.078 141.128 685.792 167.505 691.846 176.291C708.09 202.872 727.649 233.789 739.38 262.774C746.731 288.366 758.22 311.687 763.135 338.004C764.694 346.353 767.121 381.003 770.859 384.739C771.855 393.79 770.828 409.756 770.453 419.292C769.751 435.934 769.303 452.586 769.109 469.242C767.247 517.532 747.852 564.479 728.034 607.769C723.35 618.001 719.075 629.588 712.95 639.018C698.714 660.937 679.033 680.831 659.922 698.533C612.309 742.635 547.973 770.957 487.866 794.098C479.176 797.444 469.264 803.592 460.374 805.579C453.454 807.125 445.341 806.375 438.259 806.251L439.204 804.975L438.252 804.304C431.952 803.683 423.103 802.193 417.066 804.106L416.319 806.102Z"/><path fill="#13107F" d="M294.051 779.008C271.669 771.596 226.067 750.119 206.5 736.91C200.549 732.892 195.788 726.93 190.329 722.259C185.224 717.891 179.604 714.163 174.504 709.76C154.906 692.838 134.516 673.143 118.523 652.726C104.766 635.162 95.5563 615.636 86.1685 595.556C65.9054 552.213 50.2877 510.293 44.4234 462.432C43.4009 454.087 43.6914 445.637 42.9074 437.275C42.4286 432.169 39.4364 427.945 39.2595 422.81C38.8196 410.034 43.7104 395.548 45.0861 382.631C46.2902 371.327 45.4891 359.823 46.8953 348.592C48.5688 335.227 55.1575 320.935 59.3697 308.095C62.5636 298.359 64.8958 288.137 68.6092 278.613C71.5362 271.107 76.1647 264.033 79.8759 256.881C88.3073 240.631 94.9478 224.092 106.713 209.753C119.969 193.598 136.216 179.599 151.116 164.975C168.3 148.109 186.251 130.059 205.312 115.351C216.683 106.578 230.475 99.8466 243.17 93.231C259.205 84.8749 276.078 76.2942 293.138 70.2659C329.334 57.4754 369.862 53.3318 407.95 50.812C415.163 50.3348 422.355 47.4216 429.558 47.5233C434.451 47.5923 438.787 50.9705 443.95 51.2275C451.737 51.6152 459.786 50.5708 467.516 51.6125C491.585 54.8565 533.522 66.7456 555.484 76.6663C597.126 95.4772 662.618 142.983 689.977 179.375C699.696 192.304 706.841 207.032 714.441 221.261C721.545 234.564 729.145 248.075 735.075 261.94C738.394 269.702 740.144 278.156 742.851 286.148C749.33 305.28 756.206 323.267 760.03 343.263C761.502 350.965 761.786 358.818 762.896 366.567C764.116 375.082 766.138 383.595 766.651 392.19C767.452 405.626 766.176 419.361 766.005 432.82C765.795 449.295 766.542 465.947 764.211 482.294C760.312 491.433 760.63 507.033 757.667 517.906C748.96 549.854 738.633 575.272 725.233 605.428C720.597 615.86 716.373 627.106 710.571 636.918C707.781 641.637 704.118 645.734 701.009 650.228C691.266 664.105 677.385 676.197 665.375 688.193L660.038 693.272C652.847 700.997 631.907 720.397 622.929 723.799C616.172 728.647 609.48 733.395 602.273 737.57C587.275 744.471 573.279 753.151 558.429 760.308C534.898 771.65 510.422 781.192 486.124 790.696C476.556 794.438 466.933 799.619 456.686 801.122C443.494 803.058 414.158 802.869 400.665 801.337C389.937 800.119 379.168 797.638 368.514 795.817C344.03 791.635 320.324 788.971 296.783 780.275C295.838 779.926 294.937 779.484 294.051 779.008Z"/><path fill="#BC2947" d="M325.409 87.4725C344.692 73.6978 393.722 74.3054 417.571 74.4901C427.142 74.5642 437.277 74.449 446.954 74.6063C450.942 74.6712 455.702 78.8106 459.906 79.0752C461.712 79.1889 471.217 76.288 472.555 76.5251C488.905 79.4214 509.849 84.7075 525.252 90.6472C531.396 93.503 537.238 101.099 543.247 103.831C570.58 116.261 597.731 129.021 622.248 146.537C627.746 150.465 628.722 154.82 632.689 158.015C642.921 166.257 652.591 174.411 662.366 183.204C666.863 188.473 672.103 194.279 675.73 200.089C683.41 209.605 687.269 215.085 691.464 226.812C693.219 231.72 694.234 236.532 696.721 241.065C703.566 251.304 719.47 274.442 723.14 285.926C733.969 319.81 742.154 357.348 745.792 392.776C746.238 397.124 745.788 426.204 745.178 430.17C745.009 432.603 744.751 434.712 745.064 437.137L744.155 437.393C743.218 453.435 741.005 468.263 737.955 484.041C737.24 491.256 734.559 500.4 735.865 507.409C735.897 507.584 735.923 507.76 735.954 507.935C736.008 508.241 736.077 508.544 736.148 508.847C737.216 511.731 736.959 513.774 735.671 516.555C735.159 517.662 734.561 518.723 733.954 519.779C731.283 525.708 732.181 531.449 730.102 537.243C727.42 544.715 722.636 551.09 720.19 558.825C710.094 581.763 699.942 605.981 686.239 627.04C677.884 639.881 667.085 649.01 656.874 660.087C647.704 670.034 639.704 680.674 629.719 689.882C599.118 718.102 550.034 741.461 511.495 756.661C504.709 759.338 495.889 761.348 488.614 761.251C482.531 763.278 476.318 762.881 470.021 763.774C435.562 768.663 403.051 771.54 368.187 769.26C361.953 768.853 354.939 769.101 348.829 768.031C343.329 767.017 329.143 764.93 324.54 762.999C291.017 748.94 254.197 737.011 224.942 714.97C206.164 700.616 185.327 687.815 169.032 670.548C146.092 646.241 124.231 620.233 107.186 591.372C103.557 585.228 101.584 577.903 98.5188 571.482C73.3098 518.682 70.5527 460.678 65.2862 403.586C63.1956 379.931 69.0687 353.642 73.9812 330.817C74.4488 328.645 89.3684 316.222 89.6699 311.686C92.9308 299.543 94.4556 288.877 98.7377 277.285C100.597 271.597 107.278 265.524 109.602 260.383C121.925 233.125 138.149 209.301 158.807 187.703C165.24 181.414 173.469 168.621 180.216 163.194C215.197 135.054 279.624 87.2018 325.409 87.4725Z"/><path fill="#FDF9F4" d="M411.796 727.352C415.086 713.541 412.769 699.12 413.28 685.059C413.712 673.198 415.486 661.305 415.25 649.432C415.029 638.35 412.606 607.747 415.896 598.149C416.91 595.191 420.337 593.493 423.219 592.965C442.334 589.464 467.409 591.852 487.115 592.373C502.704 592.785 518.882 592.44 534.499 592.185C560.282 591.764 586.226 588.263 611.959 588.046C630.819 587.888 646.183 596.985 664.627 587.388C666.931 580.333 616.835 489.299 609.703 475.163C608.533 472.844 608.224 470.139 607.11 467.716C604.274 461.552 599.382 454.115 598.803 447.333C599.584 445.511 599.589 445.022 601.585 444.415C608.487 442.319 619.827 444.723 627.014 445.265C641.63 446.369 656.337 446.371 670.929 447.762C680.492 448.674 690.104 451.336 699.667 451.615C703.313 451.721 707.316 451.757 710.439 449.612C710.638 449.476 710.83 449.331 711.025 449.19C710.018 455.459 707.308 455.094 707.074 458.855C711.819 460.761 722.665 462.579 725.18 467.56C725.538 468.27 725.593 469.032 725.648 469.809L727.344 468.623C728.305 469.418 728.321 469.321 728.432 470.556C729.425 481.603 725.061 497.44 729.779 507.37C731.694 508.932 733.808 508.786 736.148 508.847C737.216 511.731 736.959 513.774 735.671 516.555C735.159 517.662 734.561 518.723 733.954 519.779C731.283 525.708 732.181 531.449 730.102 537.243C727.42 544.715 722.636 551.09 720.19 558.825C710.094 581.763 699.942 605.981 686.239 627.04C677.884 639.881 667.085 649.01 656.874 660.087C647.704 670.034 639.704 680.674 629.719 689.882C599.118 718.102 550.034 741.461 511.495 756.661C504.709 759.338 495.889 761.348 488.614 761.251C481.94 760.692 475.24 761.42 468.519 760.8C467.981 759.181 467.95 757.467 467.817 755.776C461.643 754.882 454.32 756.736 448.046 757.235C440.962 757.798 423.875 758.811 418.544 754.244C417.736 750.668 421.345 748.249 421.431 744.59C418.86 742.944 418.158 743.932 415.246 744.411C412.476 744.867 410.438 744.739 408.155 743.169C408.601 743.16 409.059 743.171 409.504 743.102C412.086 742.699 413.481 741.536 414.884 739.463C415.434 735.256 413.312 731.189 411.796 727.352Z"/><path fill="#FAD720" d="M447.14 601.838C454.65 601.653 464.088 604.025 472.328 604.202C507.91 605.146 543.507 605.379 579.098 604.9C588.761 604.843 598.569 606.175 608.195 605.773C621.897 605.2 649.464 598.621 661.3 605.573C663.356 606.781 664.433 608.628 664.978 610.892C669.259 628.677 647.39 648.822 636.776 660.677C631.71 666.337 626.809 672.911 621.142 677.945C612.73 685.419 603.896 687.255 597.603 697.404C595.358 699.643 592.955 702.016 590.154 703.54C581.872 708.045 572.154 710.246 563.579 714.335C554.566 718.633 546.139 724.988 536.932 728.675C529.938 731.477 522.075 732.042 514.86 734.196C498.987 738.936 480.184 747.927 463.363 747.624C460.221 747.568 458.083 744.932 455.058 744.824C446.035 744.502 440.684 746.691 431.819 742.888L424.523 735.218C424.363 724.061 427.78 717.156 427.956 708.69C428.061 703.678 424.796 698.819 424.571 693.741C424.128 683.755 426.013 673.47 426.593 663.496C427.566 646.757 424.843 625.602 430.33 609.658C432.176 604.296 442.532 604.033 447.14 601.838Z"/><path fill="#FADE26" d="M486.092 729.267C486.165 729.152 486.238 729.036 486.313 728.922C488.289 725.916 490.143 722.445 493.462 720.761C505.92 714.441 528.654 712.93 541.844 717.177C532.275 721.241 519.728 729.167 509.556 730.396C508.066 727.115 509.47 723.257 507.291 720.38C504.589 719.426 502.889 719.74 500.248 720.943C497.643 722.129 491.437 725.955 490.347 728.774C490.266 728.982 490.203 729.196 490.131 729.407L489.111 730.082C488.145 729.796 487.09 729.368 486.092 729.267Z"/><path fill="#FADE26" d="M591.837 629.184L590.396 627.825C588.626 628.696 587.128 629.127 585.177 629.411C582.793 628.297 582.006 628.209 580.804 625.756C581.45 621.839 583.887 620.295 585.648 617.019C585.709 616.905 585.767 616.788 585.827 616.672C589.738 618.633 594.917 622.225 596.392 626.56L595.563 628.353C594.338 628.681 593.106 629.087 591.837 629.184Z"/><path fill="#FADE26" d="M594.364 610.783C595.265 610.835 596.158 610.907 597.05 611.045C601.046 611.664 607.388 615.078 609.755 618.358C605.631 618.462 599.58 619.41 595.923 617.367C593.903 614.603 594.222 614.085 594.364 610.783Z"/><path fill="#EBF47B" d="M635.621 459.329C649.815 460.734 664.039 463.771 678.304 464.033C686.884 464.19 695.332 462.039 703.816 462.265C708.154 462.38 715.776 463.173 718.788 466.544C731.411 480.668 702.272 548.633 700.996 569.306L700.977 569.656C696.227 573.158 692.383 577.995 687.943 581.94C687.136 581.964 686.391 582.115 685.647 581.768C673.152 575.931 666.898 553.418 661.698 541.776C658.47 534.548 654.655 528.037 652.072 520.462C649.161 518.266 645.304 515.902 643.114 512.996C639.957 508.808 640.429 504.423 641.09 499.504C634.749 492.559 627.537 486.219 623.314 477.714C623.403 474.178 622.951 468.882 624.609 465.668C626.71 461.599 631.598 460.594 635.621 459.329Z"/><path fill="#F5FD6E" d="M641.728 467.267C642.687 467.178 643.19 467.144 644.022 467.692C647.743 470.147 663.335 474.882 667.922 475.357C670.836 475.658 673.446 474.538 676.511 474.971C678.984 476.798 678.622 479.366 679.401 482.285L681.198 481.775C681.867 478.112 682.5 474.862 685.437 472.358L687.212 474.259C687.968 477.66 685.788 477.295 685.123 480.428L686.117 481.234C688.982 479.926 690.78 477.328 692.723 474.949L690.373 472.157L691.427 470.552C692.522 471.48 693.656 472.457 694.909 473.167C698.137 474.999 704.247 472.377 707.611 471.481C710.478 472.48 710.829 473.08 712.547 475.435L712.063 476.98C709.488 475.298 707.746 474.396 704.646 474.243C701.923 475.469 701.861 475.656 700.766 478.251C699.679 478.657 698.796 478.992 697.889 479.749C703.391 482.655 704.77 477.569 709.586 477.552C710.145 481.747 711.565 494.099 709.872 497.802C708.637 500.502 707.849 503.402 706.949 506.234C706.803 508.937 706.044 517.924 705.094 520.195C704.419 521.807 700.726 523.501 700.384 525.147C699.189 530.903 703.306 532.22 700.545 540.697C698.685 546.409 695.223 559.956 689.567 562.834C684.207 561.858 678.831 556.479 674.585 553.149C674.73 550.369 674.891 547.572 674.878 544.787C674.843 537.226 666.868 532.318 661.929 527.43C660.776 521.523 659.332 519.131 654.727 515.267C654.009 510.378 654.653 500.826 651.895 497.014C651.801 496.883 651.702 496.756 651.609 496.625C646.984 490.095 639.378 486.723 634.619 480.522C632.741 478.075 632.988 476.305 633.394 473.474C635.055 470.285 638.678 468.881 641.728 467.267Z"/><path fill="#FCF9FD" d="M325.409 87.4725C344.692 73.6978 393.722 74.3054 417.571 74.4901C427.142 74.5642 437.277 74.449 446.954 74.6063C450.942 74.6712 455.702 78.8106 459.906 79.0752C461.712 79.1889 471.217 76.288 472.555 76.5251C488.905 79.4214 509.849 84.7075 525.252 90.6472C531.396 93.503 537.238 101.099 543.247 103.831C570.58 116.261 597.731 129.021 622.248 146.537C627.746 150.465 628.722 154.82 632.689 158.015C642.921 166.257 652.591 174.411 662.366 183.204C666.863 188.473 672.103 194.279 675.73 200.089C683.41 209.605 687.269 215.085 691.464 226.812C693.219 231.72 694.234 236.532 696.721 241.065C697.592 252.465 693.696 251.612 692.328 259.569C691.638 263.584 702.365 278.285 699.972 284.225C697.807 285.765 695.268 285.643 692.572 285.837C661.008 210.092 601.034 149.722 525.499 117.66C507.348 110.168 493.947 108.212 475.556 103.432C459.953 98.8173 444.13 95.8007 428.066 93.3282C424.24 92.6832 419.035 95.2984 415.428 94.9673C359.806 89.8634 302.007 103.658 254.303 132.189C251.936 133.604 249.701 136.651 246.355 138.468C177.605 175.821 125.768 247.08 97.0799 318.837C85.755 347.164 91.147 384.16 87.0561 414.052C85.0215 428.919 86.4961 429.025 88.1626 442.701C91.5891 470.82 92.581 501.381 104.444 527.545C113.796 548.378 126.274 568.2 135.891 589.054C136.614 590.621 142.201 592.565 143.465 594.119C149.817 606.305 158.452 615.881 166.971 626.481C170.744 631.177 171.956 635.079 176.635 639.908C188.068 656.409 201.148 667.527 217.244 679.12C221.558 682.227 227.89 685.585 231.512 689.305C240.221 699.577 256.608 700.918 266.584 709.372C275.242 712.241 283.038 717.398 291.321 721.175C299.352 724.836 321.942 732.572 330.614 735.07C339.061 737.112 347.708 737.466 356.243 739.006C367.728 741.078 380.061 744.985 391.619 745.705C398.544 746.136 400.416 739.186 408.155 743.169C410.438 744.739 412.476 744.867 415.246 744.411C418.158 743.932 418.86 742.944 421.431 744.59C421.345 748.249 417.736 750.668 418.544 754.244C423.875 758.811 440.962 757.798 448.046 757.235C454.32 756.736 461.643 754.882 467.817 755.776C467.95 757.467 467.981 759.181 468.519 760.8C475.24 761.42 481.94 760.692 488.614 761.251C482.531 763.278 476.318 762.881 470.021 763.774C435.562 768.663 403.051 771.54 368.187 769.26C361.953 768.853 354.939 769.101 348.829 768.031C343.329 767.017 329.143 764.93 324.54 762.999C291.017 748.94 254.197 737.011 224.942 714.97C206.164 700.616 185.327 687.815 169.032 670.548C146.092 646.241 124.231 620.233 107.186 591.372C103.557 585.228 101.584 577.903 98.5188 571.482C73.3098 518.682 70.5527 460.678 65.2862 403.586C63.1956 379.931 69.0687 353.642 73.9812 330.817C74.4488 328.645 89.3684 316.222 89.6699 311.686C92.9308 299.543 94.4556 288.877 98.7377 277.285C100.597 271.597 107.278 265.524 109.602 260.383C121.925 233.125 138.149 209.301 158.807 187.703C165.24 181.414 173.469 168.621 180.216 163.194C215.197 135.054 279.624 87.2018 325.409 87.4725Z"/><path fill="#FDF9F4" d="M266.584 709.372C275.242 712.241 283.038 717.398 291.321 721.175C299.352 724.836 321.942 732.572 330.614 735.07C320.738 735.899 292.461 737.222 284.077 734.581C282.709 733.065 282.467 732.09 282.41 730.102C282.157 721.306 271.311 720.597 266.584 709.372Z"/><path fill="#FDF9F4" d="M176.635 639.908C188.068 656.409 201.148 667.527 217.244 679.12C221.558 682.227 227.89 685.585 231.512 689.305C213.775 690.969 204.401 676.96 191.383 667.689C188.201 665.423 184.507 666.744 180.872 666.702C178.042 666.669 177.067 666.513 175.106 664.483C175.605 661.51 178.038 659.791 180.092 657.637C180.311 654.929 179.238 653.006 177.898 650.625C175.892 647.063 176.35 643.841 176.635 639.908Z"/><path fill="#F5FBFD" d="M662.366 183.204C666.863 188.473 672.103 194.279 675.73 200.089C671.3 199.926 670.203 199.105 666.263 196.913C664.424 199.227 663.83 200.323 661.083 201.432C658.223 201.116 655.979 199.49 655.747 196.587C657.401 194.021 660.048 193.457 662.964 192.393C662.874 189.379 662.59 186.226 662.366 183.204Z"/><path fill="#F5FBFD" d="M696.721 241.065C703.566 251.304 719.47 274.442 723.14 285.926C733.969 319.81 742.154 357.348 745.792 392.776C746.238 397.124 745.788 426.204 745.178 430.17C745.009 432.603 744.751 434.712 745.064 437.137L744.155 437.393C743.218 453.435 741.005 468.263 737.955 484.041C737.24 491.256 734.559 500.4 735.865 507.409C735.897 507.584 735.923 507.76 735.954 507.935C736.008 508.241 736.077 508.544 736.148 508.847C733.808 508.786 731.694 508.932 729.779 507.37C725.061 497.44 729.425 481.603 728.432 470.556C728.321 469.321 728.305 469.418 727.344 468.623L725.648 469.809C725.593 469.032 725.538 468.27 725.18 467.56C722.665 462.579 711.819 460.761 707.074 458.855C707.308 455.094 710.018 455.459 711.025 449.19C711.328 446.287 714.886 445.1 717.094 443.18C720.684 440.504 719.57 435.478 719.864 431.54C721.908 404.218 717.49 375.596 718.315 348.677C716.391 346.536 713.164 343.633 711.005 341.565C709 322.757 700.112 303.294 692.572 285.837C695.268 285.643 697.807 285.765 699.972 284.225C702.365 278.285 691.638 263.584 692.328 259.569C693.696 251.612 697.592 252.465 696.721 241.065Z"/><path fill="#FDF9F4" d="M737.955 484.041C736.937 476.146 738.627 468.251 737.346 460.402C735.215 458.281 732.654 463.858 727.151 463.747C725.019 462.082 724.396 461.794 723.655 459.079C726.032 448.444 733.074 449.381 737.546 445.201C740.129 442.786 741.044 439.731 744.155 437.393C743.218 453.435 741.005 468.263 737.955 484.041Z"/><path fill="#EBF47B" d="M293.109 321.682C294.909 318.029 297.824 314.316 299.845 310.365C308.032 294.357 317.144 278.772 325.525 262.889L366.776 184.726C371.127 176.412 390.694 135.459 396.886 135.29C407.026 141.902 432.397 192.221 441.14 206.506C452.54 223.55 461.057 245.441 472.217 262.392C496.97 299.986 519.309 339.498 539.036 379.979C543.201 388.45 550.055 396.017 553.751 405.287C556.388 408.423 559.78 411.824 560.8 415.688C560.587 417.351 560.763 418.729 559.647 419.632C556.708 422.007 550.139 422.253 546.421 422.375C532.066 422.846 517.151 419.904 503.021 419.346C479.902 418.431 456.88 418.807 433.861 415.611C429.415 414.994 420.305 413.469 415.597 412.528C415.608 412.53 409.031 416.721 408.584 417.105C408.24 417.372 407.897 417.639 407.553 417.906C399.123 420.199 393.59 417.012 389.563 422.445C390.21 425.871 393.205 427.653 396.21 429.323C400.201 433.139 400.641 435.637 400.76 441.019C400.939 449.121 398.29 456.92 398.247 464.995C398.146 483.967 404.304 564.152 398.819 574.685C395.363 576.166 392.184 576.283 388.494 576.265C378.999 576.219 369.498 575.064 360.009 574.692C341.084 573.952 321.946 573.762 302.998 573.442C282.492 573.096 261.848 574.611 241.399 573.938C228.775 573.523 215.859 572.385 203.32 570.87C202.43 571.494 201.495 572.04 200.417 572.252C192.65 573.785 177.542 574.555 170.979 569.626C168.601 567.84 167.157 565.617 166.781 562.655C166.047 556.875 171.873 546.947 175.393 542.467C180.802 527.929 186.466 514.941 194.646 501.59C197.205 497.413 204.104 490.281 205.86 486.58C214.963 467.398 224.448 448.878 234.434 430.153C241.954 416.052 252.507 402.817 259.354 388.957C266.159 375.18 273.466 363.065 280.554 349.601C283.803 343.43 288.748 326.015 293.109 321.682Z"/><path fill="#FCF9FD" d="M293.109 321.682C294.909 318.029 297.824 314.316 299.845 310.365C308.032 294.357 317.144 278.772 325.525 262.889L366.776 184.726C371.127 176.412 390.694 135.459 396.886 135.29C407.026 141.902 432.397 192.221 441.14 206.506C440.157 210.427 440.907 209.74 438.331 212.271C430.316 211.144 429.889 203.768 429.247 198.51C429.033 196.755 420.217 188.581 419.137 186.367C400.536 117.919 363.893 228.267 348.424 241.05C347.893 241.489 345.852 248.95 345.335 250.115C340.726 264.295 331.044 276.976 323.85 289.969C318.732 299.21 303.214 332.639 293.438 335.328C289.792 333.044 291.576 325.046 293.109 321.682Z"/><path fill="#FDF9F4" d="M407.553 417.906C402.298 417.534 394.056 417.059 393.191 410.857C405.18 388.085 490.604 408.779 512.991 407.235C524.262 406.458 539.417 414.815 542.551 397.32C546.372 397.471 550.749 402.422 553.751 405.287C556.388 408.423 559.78 411.824 560.8 415.688C560.587 417.351 560.763 418.729 559.647 419.632C556.708 422.007 550.139 422.253 546.421 422.375C532.066 422.846 517.151 419.904 503.021 419.346C479.902 418.431 456.88 418.807 433.861 415.611C429.415 414.994 420.305 413.469 415.597 412.528C415.608 412.53 409.031 416.721 408.584 417.105C408.24 417.372 407.897 417.639 407.553 417.906Z"/><path fill="#FDF9F4" d="M398.819 574.685C392.189 574.289 385.396 575.096 378.791 574.276C374.905 573.794 372.066 573.128 369.604 570L369.9 567.596C372.288 564.479 376.166 563.152 379.742 561.128C382.22 560.514 388.098 542.371 387.768 541.19C382.704 523.042 386.018 502.17 389.465 483.818C390.263 479.567 386.026 470.605 386.015 466.9C385.982 456.188 387.02 441.384 389.072 430.995C392.034 428.941 392.036 429.587 396.21 429.323C400.201 433.139 400.641 435.637 400.76 441.019C400.939 449.121 398.29 456.92 398.247 464.995C398.146 483.967 404.304 564.152 398.819 574.685Z"/><path fill="#FDF9F4" d="M389.598 521.228L392.513 522.398C394.959 526.369 394.631 529.882 393.818 534.324C392.948 533.959 392.23 533.836 391.666 533.053C388.944 529.273 388.894 525.686 389.598 521.228Z"/><path fill="#FCF9FD" d="M175.393 542.467C177.686 540.805 180.35 538.283 183.333 538.567C189.067 545.163 178.951 561.716 193.7 563.037C199.755 563.579 205.928 560.977 211.919 560.451C216.14 560.08 218.881 562.065 222.64 562.228C227.25 562.429 232.041 560.671 236.824 560.891C242.973 561.175 249.889 561.96 255.945 563.171C258.204 563.622 261.42 565.598 263.535 565.413C267.569 565.06 271.407 561.321 275.718 561.419C282.952 561.584 290.368 564.625 297.49 565.387C302.162 565.887 307.562 564.991 312.305 564.903C322.456 564.716 333.066 564.701 343.203 564.803C347.694 564.848 351.897 566.724 356.381 566.786L357.778 568.419C356.666 570.181 355.537 570.445 353.553 570.928C337.605 574.803 317.585 571.619 301.046 571.423C276.423 571.131 251.534 573.366 226.991 571.494C221.676 571.089 207.878 568.36 203.32 570.87C202.43 571.494 201.495 572.04 200.417 572.252C192.65 573.785 177.542 574.555 170.979 569.626C168.601 567.84 167.157 565.617 166.781 562.655C166.047 556.875 171.873 546.947 175.393 542.467Z"/><path fill="#F5FD6E" d="M397.617 186.22C399.436 183.556 401.095 180.595 403.907 179.087C408.597 179.957 408.683 182.994 409.566 187.342C411.538 191.8 409.036 192.021 409.621 192.968C411.595 196.169 417.826 202.051 418.468 205.72C412.547 205.155 412.531 199.487 406.586 199.713C408.88 202.638 410.998 204.277 411.424 207.549C408.887 206.963 406.946 205.452 404.761 204.015L404.726 205.044L404.472 204.002L405.619 204.339C405.039 210.985 425.353 213.208 431.161 221.866C438.573 232.916 435.531 234.445 439.587 246.411C446.055 253.164 454.525 266.15 460.449 272.252C472.768 284.943 468.655 283.567 472.052 300.268C473.434 307.067 487.728 313.563 488.163 324.014C487.155 325.666 486.958 325.788 485.17 326.543C490.755 335.752 496.38 347.32 504.334 354.718C505.005 355.342 504.767 357.055 505.922 358.027C508.497 360.664 514.674 366.219 516.049 369.137C520.031 375.33 527.606 386.182 527.753 392.677L526.544 395.408C525.235 395.522 524.664 395.517 523.541 394.827C515.387 389.809 478.497 399.731 467.33 392.806C465.69 391.789 464.068 390.767 462.469 389.686L461.525 390.047L461.158 393.545C457.291 393.378 455.755 388.8 452.549 388.4C442.304 387.125 432.744 393.368 423.098 392.787C416.223 392.373 410.591 387.552 403.105 389.229C399.201 390.104 390.356 395.771 387.56 398.725C378.006 408.818 375.562 512.332 377.41 530.542C377.882 535.193 379.275 540.69 376.193 544.708C373.101 548.74 367.658 550.901 364.194 555.106C363.324 556.161 362.215 558.265 360.913 558.409C352.108 559.378 343.497 553.761 334.694 553.222C322.697 552.486 311.185 555.992 299.256 555.699C279.09 555.205 259.103 550.475 239.14 550.097C233.901 549.998 229.241 551.364 224.293 551.627C221.914 550.417 219.549 549.179 217.199 547.912C223.763 545.723 238.894 548.885 243.687 546.37C234.488 546.549 233.614 548.637 229.053 540.994L229.785 539.536L231.515 539.255L234.797 543.197L235.963 542.891C235.391 540.613 235.184 540.399 233.44 538.809C226.615 537.076 227.925 542.978 221.451 543.192C218.578 543.286 207.553 541.315 205.589 539.474C204.54 531.235 222.544 523.25 214.973 512.148C212.822 508.994 221.911 508.996 224 506.267C223.317 504.556 221.561 499.053 221.759 497.339C222.517 490.78 235.898 483.914 239.076 477.738C239.924 477.191 239.345 470.92 239.605 470.54C247.868 458.463 249.975 443.454 256.714 430.36C259.561 424.826 264.206 421.618 266.793 417.06C271.519 408.932 274.478 398.539 279.177 390.559C289.384 373.223 298.364 357.68 305.081 338.657C306.044 335.928 316.937 331.488 319.499 326.215C324.63 315.655 327.545 304.605 332.467 294.069C333.111 292.719 335.253 293.178 336.658 293.272C341.027 287.648 343.825 265.985 350.721 262.991C358.656 265.805 361.588 258.76 365.831 252.761C366.126 249.04 365.689 249.789 362.965 245.942C369.261 234.474 378.142 230.114 379.715 214.436C379.977 211.834 386.056 200.456 388.647 199.108L388.744 198.533C389.93 191.897 392.195 190.073 397.617 186.22Z"/><path fill="#E5F768" d="M397.617 186.22C399.436 183.556 401.095 180.595 403.907 179.087C408.597 179.957 408.683 182.994 409.566 187.342C406.337 190.311 405.473 195.346 402.802 196.353C401.345 194.616 401.228 194.116 400.459 191.969L397.617 186.22Z"/><path fill="#FDF9F4" d="M181.544 496.534C181.173 497.773 140.588 565.708 140.142 566.042C138.68 565.528 138.054 564.747 137.148 563.533C125.386 547.769 119.154 525.338 114.085 506.732C111.843 498.502 107.627 490.895 105.804 482.553C101.821 464.325 101.619 446.467 100.855 427.996C100.024 407.907 98.6249 388.387 101.625 368.331C106.283 337.187 116.208 305.248 130.711 277.276C132.75 273.342 137.478 271.745 139.826 268.13C144.783 260.501 147.385 251.192 152.275 243.467C155.617 238.188 160.753 234.114 164.616 229.227C167.624 225.421 169.33 220.784 172.44 216.962C176.85 211.544 182.645 207.03 187.496 201.982C190.232 199.135 192.201 195.678 194.877 192.785C203.072 183.926 213.251 174.793 222.989 167.665C226.673 164.968 230.891 163.132 234.701 160.634C240.518 156.821 245.84 152.124 251.825 148.588C264.911 140.857 298.57 126.417 312.926 122.575C327.141 118.772 342.261 117.301 356.685 114.28C363.601 112.831 372.457 107.587 379.465 108.677L380.497 110.549C380.229 114.794 377.526 117.162 375.44 120.806C370.359 129.681 367.197 139.285 363.231 148.656C359.427 157.642 354.981 166.484 350.572 175.19C339.734 196.59 327.028 217.062 315.342 237.992C306.093 254.557 297.471 272.145 288.904 289.107C271.324 323.911 254.624 359.223 236.785 393.875C228.412 410.138 219.331 425.969 210.661 442.065C201.018 459.967 192.564 477.791 181.803 495.169L181.544 496.534Z"/><path fill="#FCF9FD" d="M181.544 496.534C179.722 496.626 177.217 496.951 175.485 496.376C173.359 495.67 172.797 494.449 171.75 492.62C171.647 490.845 171.784 489.463 172.539 487.856C174.052 484.637 176.697 482.037 180.028 480.803L181.333 481.733C181.568 486.209 181.725 490.688 181.803 495.169L181.544 496.534Z"/><defs><linearGradient id="gradient_0" gradientUnits="userSpaceOnUse" x1="117.22633" y1="352.98703" x2="328.50842" y2="331.10849"><stop offset="0" stop-color="#FBD31A"/><stop offset="1" stop-color="#FDF43B"/></linearGradient></defs><path fill="url(#gradient_0)" d="M306.911 147.283C313.329 143.218 347.21 126.198 343.992 147.602C342.847 155.221 331.636 166.262 328.521 173.58C323.672 184.708 325.183 200.58 319.178 211.841C315.383 218.886 309.361 224.636 305.131 231.352C301.327 237.391 299.687 246.757 295.831 252.614C275.973 282.775 259.336 314.212 243.038 346.365C239.98 352.398 234.459 358.735 231.265 364.846C218.28 393.534 183.899 433.423 179.128 464.204C177.389 465.572 172.715 469.272 171.736 470.972C166.72 479.678 151.341 517.757 141.226 520.766C136.125 519.587 130.899 511.861 128.418 507.532C118.879 490.892 118.113 471.358 117.071 452.748C116.778 447.508 114.139 437.448 114.367 432.573C114.84 422.459 116.195 412.002 117.206 401.828C118.746 386.339 118.842 365.607 123.296 350.601C129.437 329.911 136.553 303.078 146.279 283.698C148.313 279.645 157.883 271.395 160.293 267.218C163.353 261.913 165.574 252.702 168.974 247.953C173.341 241.852 184.612 237.467 188.802 232.306C190.522 230.187 195.188 220.129 196.59 217.091C197.761 216.526 232.875 186.169 234.552 184.261C238.02 180.112 275.817 161.479 284.05 158.377C285.735 155.899 303.381 148.949 306.911 147.283Z"/><path fill="#FAD720" d="M306.911 147.283C313.329 143.218 347.21 126.198 343.992 147.602C342.847 155.221 331.636 166.262 328.521 173.58C323.672 184.708 325.183 200.58 319.178 211.841C315.383 218.886 309.361 224.636 305.131 231.352C301.327 237.391 299.687 246.757 295.831 252.614C275.973 282.775 259.336 314.212 243.038 346.365C239.98 352.398 234.459 358.735 231.265 364.846C218.28 393.534 183.899 433.423 179.128 464.204C177.389 465.572 172.715 469.272 171.736 470.972C166.72 479.678 151.341 517.757 141.226 520.766C136.125 519.587 130.899 511.861 128.418 507.532C118.879 490.892 118.113 471.358 117.071 452.748C116.778 447.508 114.139 437.448 114.367 432.573C114.84 422.459 116.195 412.002 117.206 401.828C118.746 386.339 118.842 365.607 123.296 350.601C129.437 329.911 136.553 303.078 146.279 283.698C148.313 279.645 157.883 271.395 160.293 267.218C163.353 261.913 165.574 252.702 168.974 247.953C173.341 241.852 184.612 237.467 188.802 232.306C190.522 230.187 195.188 220.129 196.59 217.091C197.761 216.526 232.875 186.169 234.552 184.261C226.434 201.166 207.374 200.926 213.282 217.492C216.585 215.891 215.356 215.884 218.438 216.855C221.625 221.644 220.785 226.808 216.548 230.62C212.968 231.696 211.598 231.752 208.339 229.344C205.09 229.714 198.284 226.877 196.112 227.715C191.198 229.61 191.175 242.271 174.515 246.218C170.114 249.556 164.81 266.774 161.879 269.906C144.835 288.118 140.237 300.866 136.198 325.018C135.348 330.099 128.632 340.495 127.662 347.262C126.161 357.73 125.878 369.342 123.178 379.568C123.329 395.859 118.446 425.175 120.581 440.474C123.463 461.119 120.469 484.53 137.471 497.496C137.483 497.506 140.744 508.31 146.606 504.458C156.059 498.249 159.437 481.094 165.053 471.523C169.555 463.39 173.618 454.77 178.006 446.573C179.91 442.959 175.683 442.178 178.378 437.328C180.59 436.803 181.244 436.749 183.227 435.57C191.15 419.069 200.2 398.065 209.373 381.946C209.111 382.407 208.31 375.313 208.295 374.405C210.712 371.36 213.942 372.966 217.623 371.699C226.887 368.509 229.773 346.482 235.19 339.045C236.346 337.458 240.294 337.902 243.488 332.011C242.536 330.914 222.714 319.654 236.973 314.662C238.975 313.961 243.009 317.949 247.326 316.87C250.47 308.663 251.546 305.82 257.26 298.871C257.924 298.064 258.321 290.473 259.358 288.306C267.578 271.126 276.665 253.305 290.487 239.929C292.282 238.185 291.259 219.157 292.573 215.162C296.17 204.226 302.445 213.765 310.161 209.112C312.619 202.388 307.958 200.53 312.196 194.598C312.907 193.596 313.632 192.605 314.371 191.624L313.272 187.846C311.248 191.187 309.335 195.925 306.199 196.71L304.169 195.173C304.46 193.399 304.662 194.122 304.068 192.793C303.496 188.019 303.664 185.178 300.216 182.042C289.216 183.725 290.702 191.698 279.352 193.983L278.681 193.264C279.933 185.051 292.036 177.422 296.577 166.749C295.486 163.247 296.317 164.361 293.627 162.317C284.667 161.969 283.909 169.724 275.029 171.567C275.777 165.788 280.346 162.249 284.05 158.377C285.735 155.899 303.381 148.949 306.911 147.283Z"/><path fill="#FADE26" d="M300.216 182.042C298.467 181.878 298.349 181.679 296.857 180.642L297.893 177.048C300.871 174.633 299.593 175.282 303.276 174.649C306.852 175.294 307.865 177.097 310.242 179.957C310.569 183.273 311.699 184.921 313.272 187.846C311.248 191.187 309.335 195.925 306.199 196.71L304.169 195.173C304.46 193.399 304.662 194.122 304.068 192.793C303.496 188.019 303.664 185.178 300.216 182.042Z"/><defs><linearGradient id="gradient_1" gradientUnits="userSpaceOnUse" x1="262.45355" y1="167.36745" x2="268.18707" y2="212.5661"><stop offset="0" stop-color="#FACA13"/><stop offset="1" stop-color="#FCEB30"/></linearGradient></defs><path fill="url(#gradient_1)" d="M275.029 171.567C283.909 169.724 284.667 161.969 293.627 162.317C296.317 164.361 295.486 163.247 296.577 166.749C292.036 177.422 279.933 185.051 278.681 193.264L279.352 193.983C290.702 191.698 289.216 183.725 300.216 182.042C303.664 185.178 303.496 188.019 304.068 192.793C299.882 189.879 300.375 186.724 296.406 185.331C288.246 187.692 282.64 209.554 287.233 217.257C285.953 219.604 286.719 219.003 284.47 219.712C278.559 217.085 279.301 204.284 271.991 203.887L268.939 206.012C263.66 204.31 267.802 202.522 262.428 202.432C254.944 207.439 258.247 210.545 248.325 216.548C237.537 211.977 242.181 210.821 234.958 204.436C230.864 204.068 231.933 204.256 227.788 206.105C228.172 201.914 235.585 192.84 238.762 190.22L239.313 189.772C245.94 184.315 260.16 178.284 268.977 172.546C271.429 172.602 272.703 172.62 275.029 171.567Z"/><path fill="#FADE26" d="M227.788 206.105C231.933 204.256 230.864 204.068 234.958 204.436C242.181 210.821 237.537 211.977 248.325 216.548C247.371 219.259 244.361 222.598 241.506 222.138C232.557 220.698 234.026 211.966 227.788 206.105Z"/><path fill="#FADE26" d="M173.98 287.778C174.178 287.829 174.377 287.871 174.572 287.93C176.452 288.499 178.447 290.906 179.293 292.582C179.625 293.239 179.437 293.876 179.192 294.539C178.291 296.986 176.044 297.96 173.803 298.917L173.242 299.153C169.303 300.831 164.912 300.088 160.753 299.74L158.922 300.001L157.768 298.974L158.076 296.676C159.964 294.087 170.133 290.715 173.98 287.778Z"/><path fill="#FAD720" d="M196.86 236.375C197.56 236.383 198.047 236.369 198.706 236.64C201.538 237.805 202.669 239.154 203.84 241.834C202.751 246.043 200.573 247.375 197.534 250.351L197.426 248.026C197.074 247.883 196.724 247.736 196.375 247.585C193.855 246.492 192.91 246.013 191.908 243.513C192.695 240.49 194.781 238.586 196.86 236.375Z"/><path fill="#FADE26" d="M220.294 350.5C222.073 350.809 223.039 351.1 224.344 352.378C224.166 355.992 220.841 361.162 219.806 365.043C219.689 364.979 219.57 364.918 219.454 364.852C216.694 363.287 214.943 361.499 214.114 358.477C214.727 355.171 217.955 352.747 220.294 350.5Z"/><path fill="#B4ECF6" d="M428.1 151.467C423.35 144.287 403.285 113.008 406.779 105.938C414.749 101.161 434.738 109.205 442.396 110.021C453.485 111.202 458.386 111.145 469.608 113.64C478.89 113.773 502.64 123.675 512.315 126.382C522.203 129.149 536.639 137.479 547.055 138.845C554.845 144.787 563.231 150.262 570.72 156.498C581.472 165.45 595.54 173.283 605.489 183.005C622.19 198.885 636.73 213.505 649.182 232.973C651.493 236.585 656.856 243.542 658.253 247.3C670.34 265.515 679.857 282.577 688.752 302.763C691.172 308.256 692.286 315.155 694.171 319.723C702.069 337.775 714.629 416.957 701.077 430.421C690.375 435.758 618.216 431.211 603.014 426.138C596.894 424.096 594.545 425.962 588.898 425.185C579.596 419.485 561.361 377.081 555.088 366.207C534.06 329.756 512.82 293.546 491.104 257.514C470.436 223.222 445.648 187.32 428.1 151.467Z"/><path fill="#FCF9FD" d="M658.253 247.3C670.34 265.515 679.857 282.577 688.752 302.763C691.172 308.256 692.286 315.155 694.171 319.723C695.445 330.922 693.706 325.647 688.563 332.862C688.332 333.186 687.772 340.6 686.64 343.34L686.236 343.195C681.687 335.679 677.019 311.18 673.163 302.213C671.102 297.42 664.585 292.25 664.572 288.301L666.388 286.469C664.891 283.422 659.86 279.791 657.375 276.874C657.01 271.909 658.744 267.657 658.708 263.226C658.692 261.188 657.697 257.822 657.499 254.462L658.253 247.3Z"/><path fill="#FCF9FD" d="M428.1 151.467C423.35 144.287 403.285 113.008 406.779 105.938C414.749 101.161 434.738 109.205 442.396 110.021C453.485 111.202 458.386 111.145 469.608 113.64C466.728 113.803 459.35 114.366 456.921 114.019C437.29 111.218 442.679 117.837 432.429 128.485C433.081 133.379 436.543 139.414 435.931 141.956C434.707 146.524 434.398 147.572 435.986 151.988C434.213 151.679 430.087 151.571 428.1 151.467Z"/><path fill="#FCF9FD" d="M547.055 138.845C554.845 144.787 563.231 150.262 570.72 156.498C581.472 165.45 595.54 173.283 605.489 183.005C605.63 187.1 605.836 193.934 603.412 197.248C589.771 191.129 577.39 177.907 564.536 169.917C563.36 169.186 559.742 158.871 557.972 157.834C554.246 155.654 546.137 153.301 543.367 150.406L545.671 149.976C547.448 148.296 546.944 142.069 547.055 138.845Z"/><path fill="#F5FBFD" d="M664.572 288.301C648.813 274.585 655.805 278.064 648.403 260.509C647.676 258.786 640.296 252.328 639.243 249.193C638.387 246.644 641.238 240.509 639.508 238.738C637.596 236.781 629.263 229.402 628.601 227.393C634.732 233.026 648.505 242.033 650.471 249.588C654.285 253.78 652.533 252.766 657.499 254.462C657.697 257.822 658.692 261.188 658.708 263.226C658.744 267.657 657.01 271.909 657.375 276.874C659.86 279.791 664.891 283.422 666.388 286.469L664.572 288.301Z"/><path fill="#FCF9FD" d="M657.375 276.874C656.5 274.491 653.798 271.078 654.694 268.365C656.586 262.638 646.853 250.524 646.573 248.154L650.471 249.588C654.285 253.78 652.533 252.766 657.499 254.462C657.697 257.822 658.692 261.188 658.708 263.226C658.744 267.657 657.01 271.909 657.375 276.874Z"/><path fill="#FCF9FD" d="M435.986 151.988C434.398 147.572 434.707 146.524 435.931 141.956C439.039 144.92 439.786 145.507 440.954 149.566L440.426 151.993C437.859 152.769 438.929 152.652 435.986 151.988Z"/><defs><linearGradient id="gradient_2" gradientUnits="userSpaceOnUse" x1="528.90491" y1="314.43289" x2="647.46069" y2="289.98624"><stop offset="0" stop-color="#5FD7F4"/><stop offset="1" stop-color="#8EF0F9"/></linearGradient></defs><path fill="url(#gradient_2)" d="M513.519 191.472C512.805 185.804 497.545 179.743 495.947 174.431C503.111 173.628 509.026 179.773 514.6 182.244C519.153 184.263 519.37 181.433 525.165 186.108C535.154 191.371 527.29 196.154 538.023 196.27C554.562 199.1 553.003 208.355 562.717 208.532C565.752 212.2 569.062 215.288 573.808 216.568L575.799 217.617L576.497 222.439C578.12 236.578 585.388 232.306 592.237 239.023C599.525 244.249 630.958 262.326 632.166 266.778C632.106 268.392 632.03 270.438 631.938 272.915C634.964 278.762 639.457 286.261 642.679 291.796C643.048 291.993 648.142 294.644 648.054 294.479C654.467 306.556 655.3 314.96 664.89 325.56L665.323 333.533C667.383 335.346 666.415 335.029 668.911 334.881C673.224 331.119 670.814 324.366 672.525 321.571C677.164 333.644 662.733 335.201 677.325 351.422C683.928 358.764 685.724 386.957 682.645 397C676.029 400.372 675.187 393.037 670.274 390.596C667.771 389.352 664.603 393.167 660.202 391.476C658.12 388.689 658.666 389.734 659.069 385.566C656.993 382.604 657.254 383.418 653.138 382.011C654.534 383.411 655.598 384.558 656.886 386.059L656.668 388.712C650.286 392.996 646.217 386.088 642.821 383.895C644.006 389.561 651.908 395.676 655.307 401.264C658.906 401.309 661.659 402.315 664.195 404.791C665.388 408.057 665.385 406.745 664.473 409.801C654.643 416.787 632.385 393.071 622.442 388.105C610.052 381.918 595.717 381.819 587.449 370.41C584.595 368.251 583.71 366.811 580.62 366.581C575.745 362.936 572.991 351.281 571.418 350.442C556.07 342.259 566.423 337.569 563.837 331.344C562.338 330.347 562.313 330.297 561.632 328.583L563 325.507C562.691 321.06 553.408 313.24 552.812 308.445L553.866 307.263L556.804 308.245L554.578 305.741L550.959 305.672C552.529 301.915 552.763 301.44 556.073 299.107C550.043 295.716 553.576 290.126 556.756 286.349L553.349 286.002C548.005 313.327 526.143 273.907 521.596 266.33C521.757 266.598 521.149 260.922 521.036 260.167C519.867 257.823 520.187 255.591 519.614 254.487C518.385 252.117 516.863 249.431 515.605 246.925C518.823 245.715 519.861 244.116 522.137 241.493L523.316 241.683C524.66 243.647 525.811 245.363 527.044 247.409C527.594 235.536 515.193 242.778 521.634 228.394C523.065 225.198 521.616 222.85 520.327 219.792C516.13 219.029 512.631 213.892 509.969 210.56C509.473 210.119 508.994 209.661 508.532 209.185C506.371 206.928 504.686 205.648 504.734 203.077L505.173 202.721C510.381 205.582 506.576 206.341 511.373 209.091L511.68 204.671C513.871 200.956 515.775 199.956 519.656 198.178C518.601 195.637 515.615 193.598 513.519 191.472Z"/><path fill="#77E2F5" d="M513.519 191.472C512.805 185.804 497.545 179.743 495.947 174.431C503.111 173.628 509.026 179.773 514.6 182.244C519.153 184.263 519.37 181.433 525.165 186.108C535.154 191.371 527.29 196.154 538.023 196.27C554.562 199.1 553.003 208.355 562.717 208.532C565.752 212.2 569.062 215.288 573.808 216.568L575.799 217.617L576.497 222.439C572.506 219.224 571.356 220.118 566.521 220.519L566.231 217.708L564.225 216.623C562.048 220.22 560.958 222.35 559.251 226.194L563.154 227.213C564.92 227.666 565.208 227.814 566.475 229.16C568.746 240.845 574.026 235.583 581.405 244.806C579.725 246.566 578.698 248.092 577.307 250.051C577.25 254.62 576.904 255.899 575.741 260.366L572.95 261.355L575.811 260.228L574.091 262.638C572.123 261.22 571.4 255.048 570.888 254.69C565.618 251.018 548.357 244.948 554.025 236.19L556.436 236.426C559.627 238.69 560.005 239.186 561.366 242.898L561.486 243.231C563.832 244.833 567.028 244.429 569.984 244.404C565.238 242.27 564.074 242.796 562.513 238.973L563.08 237.997C564.999 239.442 565.837 240.245 568.221 240.872C567.947 238.195 567.513 238.633 564.954 236.257C562.62 230.655 560.805 230.01 555.097 228.035C550.402 226.193 548.378 224.416 543.846 225.345C540.168 228.509 541.741 228.024 537.364 228.171C534.56 226.105 532.462 224.043 529.034 224.407C526.578 225.496 527.354 224.718 526.25 227.467C526.86 233.675 531.541 243.068 530.44 246.132C529.365 246.645 528.071 247.48 527.044 247.409C527.594 235.536 515.193 242.778 521.634 228.394C523.065 225.198 521.616 222.85 520.327 219.792C516.13 219.029 512.631 213.892 509.969 210.56C509.473 210.119 508.994 209.661 508.532 209.185C506.371 206.928 504.686 205.648 504.734 203.077L505.173 202.721C510.381 205.582 506.576 206.341 511.373 209.091L511.68 204.671C513.871 200.956 515.775 199.956 519.656 198.178C518.601 195.637 515.615 193.598 513.519 191.472Z"/><path fill="#6ADAF6" d="M559.251 226.194C556.434 225.741 555.987 225.689 553.842 223.649C552.886 217.764 556.643 215.132 561.495 212.802L563.437 213.716L564.225 216.623C562.048 220.22 560.958 222.35 559.251 226.194Z"/><path fill="#6ADAF6" d="M516.485 207.609L520.499 207.714C522.617 208.866 524.457 209.947 525.7 212.089C527.527 215.237 527.198 217.953 526.327 221.334C523.406 220.498 520.907 218.201 518.956 215.94C516.691 213.315 516.265 210.978 516.485 207.609Z"/><path fill="#6ADAF6" d="M516.24 185.904C518.559 186.003 522.161 186.458 524.152 187.67C526.565 189.14 526.788 190.723 527.517 193.266C524.795 193.645 522.996 193.31 520.385 192.535C517.838 190.616 517.158 188.91 516.24 185.904Z"/><path fill="#77E2F5" d="M643.297 350.518C642.511 344.257 647.382 335.516 645.387 333.279C641.035 328.4 643.486 317.29 647.823 313.948C657.745 317.29 653.435 326.543 655.149 331.258C655.771 332.968 661.913 333.429 665.839 339.696L667.03 339.114C667.891 343.804 669.223 345.058 672.452 348.494L672.407 351.685C679.038 361.572 681.683 379.488 681.432 391.333C681.743 393.245 681.957 395.204 682.645 397C676.029 400.372 675.187 393.037 670.274 390.596C667.771 389.352 664.603 393.167 660.202 391.476C658.12 388.689 658.666 389.734 659.069 385.566C656.993 382.604 657.254 383.418 653.138 382.011L652.392 381.306C650.273 374.023 648.899 362.701 660.102 364.046C659.435 360.697 660.117 355.823 658.475 353.173C657.215 355.654 656.757 356.784 654.877 358.871C653.072 356.063 650.425 347.898 646.842 346.537C648.06 349.89 651.485 358.285 650.263 361.193C647.968 359.892 647.109 356.597 645.842 353.798L643.297 350.518Z"/><path fill="#6ADAF6" d="M652.392 381.306C650.273 374.023 648.899 362.701 660.102 364.046C665.049 366.992 670.243 363.686 672.847 370.796C672.196 379.684 659.049 381.588 661.852 388.93L663.897 389.938C667.62 388.482 667.232 387.992 670.674 388.532C672.495 390.122 677.533 394.966 679.45 395.349C681.663 393.085 681.209 394.166 681.432 391.333C681.743 393.245 681.957 395.204 682.645 397C676.029 400.372 675.187 393.037 670.274 390.596C667.771 389.352 664.603 393.167 660.202 391.476C658.12 388.689 658.666 389.734 659.069 385.566C656.993 382.604 657.254 383.418 653.138 382.011L652.392 381.306Z"/><path fill="#79E1F2" d="M665.839 339.696L667.03 339.114C667.891 343.804 669.223 345.058 672.452 348.494L672.407 351.685C659.834 345.253 663.524 352.567 656.056 350.715C653.164 347.869 652.914 347.229 651.637 343.333C652.069 340.253 651.464 341.397 654.254 339.141C657.697 339.025 658.685 340.901 662.322 343.176C664.994 342.205 664.151 342.643 665.839 339.696Z"/><path fill="#79E1F2" d="M563.837 331.344L566.758 330.582C569.996 333.706 582.05 345.897 585.138 347.051C586.874 346.668 590.956 345.459 592.242 346.576C601.264 354.411 604.176 368.167 615.78 373.349C617.653 374.186 620.938 372.623 622.247 374.099C625.806 378.03 622.291 381.419 628.801 382.628C630.436 381.221 631.529 379.647 633.226 379.799C635.11 379.975 636.839 380.918 638.007 382.406C642.54 388.085 643.186 398.447 655.307 401.264C658.906 401.309 661.659 402.315 664.195 404.791C665.388 408.057 665.385 406.745 664.473 409.801C654.643 416.787 632.385 393.071 622.442 388.105C610.052 381.918 595.717 381.819 587.449 370.41C584.595 368.251 583.71 366.811 580.62 366.581C575.745 362.936 572.991 351.281 571.418 350.442C556.07 342.259 566.423 337.569 563.837 331.344Z"/><path fill="#79E1F2" d="M580.62 366.581C583.87 362.793 582.871 362.779 586.954 361.707C590.109 363.898 588.497 367.156 587.449 370.41C584.595 368.251 583.71 366.811 580.62 366.581Z"/><path fill="#4FBCDF" d="M577.57 345.707C582.671 351.119 588.6 348.394 594.797 351.885C596.345 354.398 596.23 354.75 595.827 357.525C595.234 358.232 595.105 358.408 594.252 358.727L592.121 359.336C587.447 357.167 582.89 358.648 578.477 356.565C576.619 353.575 577.412 349.11 577.57 345.707Z"/><defs><linearGradient id="gradient_3" gradientUnits="userSpaceOnUse" x1="569.99298" y1="299.64914" x2="577.79004" y2="346.05933"><stop offset="0" stop-color="#5AD4F6"/><stop offset="1" stop-color="#7DEDFB"/></linearGradient></defs><path fill="url(#gradient_3)" d="M550.959 305.672L556.208 303.016C559.789 304.202 562.861 305.419 566.653 305.59C571.349 310.252 587.633 323.81 589.685 327.048C587.499 329.302 584.557 331.786 583.946 334.75C586.835 344.238 603.315 337.55 608.737 338.394C606.761 341.424 606.082 340.638 603.609 342.656C605.689 345.73 606.319 348.532 604.815 352.112C606.857 354.76 613.733 359.582 612.377 365.217C610.969 364.506 593.596 342.768 591.379 343.627C578.623 348.569 579.623 331.337 566.758 330.582L563.837 331.344C562.338 330.347 562.313 330.297 561.632 328.583L563 325.507C562.691 321.06 553.408 313.24 552.812 308.445L553.866 307.263L556.804 308.245L554.578 305.741L550.959 305.672Z"/><path fill="#6ADAF6" d="M563 325.507C562.691 321.06 553.408 313.24 552.812 308.445L553.866 307.263L556.804 308.245C561.479 311.583 568.372 320.052 570.237 325.272L569.545 326.97C566.996 327.642 565.381 326.595 563 325.507Z"/><path fill="#79E1F2" d="M603.609 342.656C605.689 345.73 606.319 348.532 604.815 352.112C600.763 351.398 598.792 350.833 597.647 346.714C599.813 343.439 599.351 344.365 603.609 342.656Z"/><path fill="#79E1F2" d="M521.036 260.167C523.515 257.23 523.832 257.857 523.848 254.818L520.736 251.888L521.08 250.163C522.36 250.001 534.492 253.87 534.253 255.488C532.003 270.686 541.419 275.071 553.349 286.002C548.005 313.327 526.143 273.907 521.596 266.33C521.757 266.598 521.149 260.922 521.036 260.167Z"/><path fill="#79E1F2" d="M564.225 216.623L566.231 217.708L566.521 220.519C571.356 220.118 572.506 219.224 576.497 222.439C578.12 236.578 585.388 232.306 592.237 239.023C601.076 253.844 602.81 244.676 611.466 256.392L604.02 252.155L603.166 252.756C606.867 259.361 607.471 257.2 609.403 259.674C608.119 259.795 604.336 260.057 603.293 260.298C601.838 256.88 600.653 252.612 597.503 251.098C594.403 250.654 592.848 251.876 590.083 253.403C588.694 251.723 582.251 246.808 581.405 244.806C574.026 235.583 568.746 240.845 566.475 229.16C565.208 227.814 564.92 227.666 563.154 227.213L559.251 226.194C560.958 222.35 562.048 220.22 564.225 216.623Z"/><path fill="#77E2F5" d="M590.083 253.403C592.848 251.876 594.403 250.654 597.503 251.098C600.653 252.612 601.838 256.88 603.293 260.298L603.435 261.263C605.807 261.378 608.168 261.863 610.509 262.28C614.203 264.749 618.506 269.669 619.525 274.11C619.019 277.257 619.039 278.154 617.06 280.688C610.853 281.882 602.731 258.901 593.299 259.662C593.221 259.668 588.759 258.488 588.351 258.384L587.56 256.857C589.287 257.307 589.392 257.365 591.145 257.179L590.083 253.403Z"/><path fill="#79E1F2" d="M645.842 353.798C646.143 356.394 646.445 357.838 645.909 360.456C643.516 363.314 644.493 363.012 641.384 363.682C634.699 358.601 638.049 345.882 636.012 338.289C635.389 335.963 633.432 331.069 634.07 329.291C637.483 328.97 640.876 330.456 642.83 333.359C645.162 336.824 640.82 339.181 640.309 343.83C641.043 346.177 641.604 348.659 643.297 350.518L645.842 353.798Z"/><path fill="#79E1F2" d="M642.821 383.895C642.179 378.619 636.973 377.3 638.899 372.206C644.79 372.189 648.235 377.409 652.392 381.306L653.138 382.011C654.534 383.411 655.598 384.558 656.886 386.059L656.668 388.712C650.286 392.996 646.217 386.088 642.821 383.895Z"/><path fill="#6ADAF6" d="M556.756 286.349C559.783 287.93 567.72 295.782 569.032 299.328L568.739 301.565C563.656 303.955 560.742 301.489 556.073 299.107C550.043 295.716 553.576 290.126 556.756 286.349Z"/><path fill="#79E1F2" d="M555.097 228.035C560.805 230.01 562.62 230.655 564.954 236.257C561.496 236.414 559.41 236.836 556.499 235.064C554.527 231.505 555.11 232.481 555.097 228.035Z"/><path fill="#6ADAF6" d="M586.952 313.585C589.905 314.294 594.383 314.917 596.831 316.684C600.523 319.349 602.891 323.245 603.458 327.729C604.024 332.209 602.765 333.671 600.168 337.107L597.089 336.257C595.694 333.846 595.959 333.252 596.059 330.598C596.374 322.214 589.865 323.971 585.407 319.234C585.056 316.391 585.535 315.941 586.952 313.585Z"/><path fill="#77E2F5" d="M539.877 251.362L542.368 252.167C543.452 253.435 544.035 253.995 544.381 255.659C545.296 260.064 543.726 264.015 541.333 267.639C539.81 266.715 538.832 265.605 537.7 264.243C536.3 259.209 537.824 255.998 539.877 251.362Z"/><path fill="#6ADAF6" d="M471.935 170.36C470.977 170.176 467.808 169.518 467.257 168.874C462.101 162.851 450.232 143.811 456.686 136.794C458.909 136.291 463.191 138.365 466.523 139.092C471.587 135.762 472.749 136.153 479.612 136.539C486.12 144.029 478.145 150.619 494.216 153.608C501.117 154.891 506.916 158.215 514.818 156.793L518.151 158.57C514.936 159.824 510.616 159.559 509.153 160.387C506 162.171 506.395 164.532 502.064 166.464C507.292 166.765 508.45 166.013 510.51 171.5C513.097 170.365 516.658 170.914 519.569 171.112L519.958 171.972L517.422 174.943L518.766 179.301L517.898 180.615C513.831 180.413 510.298 177.819 507.039 175.407C502.893 173.734 498.332 170.019 494.321 172.825C493.243 181.583 509.985 184.984 512.096 191.955L513.519 191.472C515.615 193.598 518.601 195.637 519.656 198.178C515.775 199.956 513.871 200.956 511.68 204.671L511.373 209.091C506.576 206.341 510.381 205.582 505.173 202.721L504.734 203.077C504.686 205.648 506.371 206.928 508.532 209.185C508.994 209.661 509.473 210.119 509.969 210.56C496.919 209.684 500.399 195.743 484.303 195.059C471.942 194.534 478.491 172.393 471.935 170.36Z"/><path fill="#79E1F2" d="M471.935 170.36C470.977 170.176 467.808 169.518 467.257 168.874C462.101 162.851 450.232 143.811 456.686 136.794C458.909 136.291 463.191 138.365 466.523 139.092C461.733 155.325 475.126 152.948 471.935 170.36Z"/><path fill="#4FBCDF" d="M502.064 166.464C507.292 166.765 508.45 166.013 510.51 171.5L507.192 174.176C504.753 172.296 502.252 170.815 501.197 167.985L502.064 166.464Z"/><path fill="#6ADAF6" d="M538.023 196.27C532.214 192.049 533.928 193.473 530.561 186.705C530.61 186.803 525.999 184.989 525.183 184.345C520.33 180.518 528.408 174.443 527.555 168.595C526.105 167.94 525.055 167.703 524.33 166.334C526.858 165.175 526.029 165.48 529.183 166.168C531.565 168.562 530.982 167.382 531.511 170.576L528.84 173.608C538.302 173.383 534.797 180.49 541.695 172.201C545.393 172.366 569.438 187.026 569.256 192.533L568.279 193.12C565.642 196.36 564.997 196.017 564.876 199.384C565.741 200.789 567.29 203.125 567.971 204.51C571.145 209.046 577.319 211.996 578.902 216.028C576.917 217.363 576.65 216.827 573.808 216.568C569.062 215.288 565.752 212.2 562.717 208.532C553.003 208.355 554.562 199.1 538.023 196.27Z"/><path fill="#4FBCDF" d="M528.84 173.608C538.302 173.383 534.797 180.49 541.695 172.201C545.393 172.366 569.438 187.026 569.256 192.533L568.279 193.12C555.659 197.125 553.031 190.35 544.84 181.407C540.393 181.43 531.804 182.418 528.864 180.787C527.288 177.597 527.971 177.929 528.84 173.608Z"/><path fill="#4FBCDF" d="M562.717 208.532C559.99 206.425 555.372 203.839 556.82 200.213C561.997 200.18 563.304 201.796 567.971 204.51C571.145 209.046 577.319 211.996 578.902 216.028C576.917 217.363 576.65 216.827 573.808 216.568C569.062 215.288 565.752 212.2 562.717 208.532Z"/><defs><linearGradient id="gradient_4" gradientUnits="userSpaceOnUse" x1="690.30042" y1="376.35919" x2="697.1449" y2="375.32742"><stop offset="0" stop-color="#F2FFFE"/><stop offset="1" stop-color="#FFFCFF"/></linearGradient></defs><path fill="url(#gradient_4)" d="M685.71 351.631C688.685 352.897 691.116 356.065 693.647 358.133L694.217 358.134C694.863 358.73 695.499 359.329 696.102 359.968C707.77 372.325 700.199 390.353 699.728 404.882L697.194 401.389C697.595 397.956 696.272 388.645 693.872 386.081C692.159 384.251 689.097 383.79 688.418 381.057C685.777 370.43 693.222 362.4 685.71 351.631Z"/><path fill="#4FBCDF" d="M595.724 219.937C596.216 219.995 596.673 220.061 597.155 220.177C602.315 221.419 609.067 229.029 611.547 233.399C613.286 236.461 612.381 239.201 611.502 242.389C608.531 242.561 605.957 242.637 603.043 241.952C604.571 228.377 597.142 232.027 595.724 219.937Z"/><path fill="#79E1F2" d="M610.259 386.907C616.999 388.662 624.807 392.646 629.89 397.424C630.505 398.002 630.283 398.48 630.304 399.286C628.614 399.831 626.904 400.365 625.161 400.715C622.412 401.266 620.126 399.885 617.925 398.359C614.709 396.13 610.941 390.792 610.259 386.907Z"/><path fill="#79E1F2" d="M651.605 296.991C653.365 297.288 654.779 297.92 656.387 298.658C660.122 303.621 662.352 308.915 663.276 315.063C661.808 314.777 660.214 314.389 658.918 313.624C654.259 310.876 652.91 301.837 651.605 296.991Z"/><path fill="#FEE1FA" d="M428.251 434.974C436.471 433.325 448.538 436.057 457.184 436.444C474.133 437.204 491.138 437.066 508.063 438.017C520.492 438.715 532.863 440.448 545.282 441.335C554.621 442.002 564.019 441.808 573.325 442.903C583.814 452.307 602.875 497.938 610.138 512.684C618.048 528.742 627.793 544.25 633.864 561.162C634.833 563.86 636.123 566.393 634.861 569.054C631.23 571.898 624.827 573.897 620.25 574.49C596.971 573.598 569.223 577.317 545.268 577.705C522.255 578.077 499.344 576.856 476.365 576.69C459.771 576.571 441.853 578.134 425.421 576.065C422.357 575.679 419.884 575.243 417.643 573.075C413.983 558.678 418.611 459.966 422.603 443.645C423.62 439.485 424.499 437.251 428.251 434.974Z"/><path fill="#E720CB" d="M450.764 446.44C452.393 445.741 454.383 445.745 456.138 445.671C467.373 445.197 480.507 445.759 491.643 447.205C499.675 448.248 507.632 450.18 515.72 450.678C524.229 451.202 563.977 451.542 568.133 453.424C574.438 456.28 592.2 519.093 607.172 532.812C608.35 539.127 613.346 554.789 610.438 560.568C609.15 563.127 593.701 559.631 590.65 559.826C588.519 559.961 586.186 560.848 584.192 561.547C581.892 562.836 577.369 563.103 574.723 563.372C547.479 566.147 518.636 561.724 491.28 561.227C475.301 560.938 458.458 563.736 442.617 562.071C438.242 561.611 431.792 560.072 428.498 557.07C426.462 555.215 426.605 551.988 426.453 549.425C425.783 538.132 427.86 455.794 432.536 450.787C436.645 446.387 445.113 446.661 450.764 446.44Z"/><path fill="#F32AE1" d="M462.59 464.062C465.407 464.413 470.201 465.471 472.536 463.637C476.033 460.892 477.772 457.52 482.832 457.913C485.934 458.154 487.658 459.524 489.594 461.865C491.836 464.577 492.705 466.33 496.346 466.742C499.133 464.025 500.693 461.265 504.423 459.892C508.922 460.489 513.16 464.031 517.305 464.262C520.342 464.431 523.021 461.479 526.06 461.29C534.955 460.737 544.027 467.739 552.182 461.427C553.911 460.088 555.194 459.88 557.396 460.108C560.333 460.412 562.999 462.75 564.715 464.995C568.892 470.457 570.052 478.002 573.296 484.004C574.638 486.487 577.37 488.16 578.724 490.516C579.541 491.937 579.211 495.272 579.116 496.908C577.395 500.346 573.577 504.335 572.687 507.815C571.656 511.848 573.151 517.406 570.822 520.729L570.244 520.588C569.053 520.303 568.062 519.946 566.852 520.318L568.076 522.4C571.471 522.985 572.123 520.723 575.149 522.046C576.411 524.273 578.309 531.875 579.894 532.861C581.183 530.954 581.95 529.738 581.451 527.343C580.837 524.393 579.229 521.2 577.466 518.763L578.766 515.964C583.418 520.637 586.12 533.299 589.631 535.585C590.79 536.339 591.934 537.114 593.099 537.859C594.419 540.466 595.181 542.206 594.992 545.171C594.121 546.555 593.756 547.475 592.294 548.279C587.416 550.962 573.49 551.075 568.26 549.438C560.713 547.074 563.384 540.294 560.616 534.691C558.564 533.254 558.171 532.986 555.694 532.844C550.763 536.941 549.216 546.41 547.525 552.313C544.191 551.81 540.414 545.864 537.115 543.943C530.744 547.828 532.342 545.309 529.196 544.956C526.724 544.678 520.486 549.906 515.578 549.143C512.144 548.609 509.781 544.893 506.134 544.124C499.99 542.828 496.978 545.204 492.116 548.375C481.671 555.189 464.768 550.867 453.558 548.331L453.049 549.538L453.208 549.84C452.81 550.068 452.55 550.244 452.137 550.402C450.44 551.053 448.65 550.392 447.11 549.656L449.553 547.941L448.955 544.513L450.299 542.924C454.882 542.97 454.826 547.222 459.526 548.493C462.545 546.987 462.247 544.754 464.212 542.173C466.17 543.542 467.957 545.102 469.77 546.654C473.843 546.406 475.305 543.413 478.893 542.66C481.731 542.064 484.087 544.567 487.107 543.736C489.809 542.993 495.358 538.824 496.765 536.416C494.165 535.8 487.911 539.174 484.856 539.712C481.229 540.352 477.196 539.826 473.48 539.987C472.505 541.407 471.973 542.856 471.38 544.459C467.438 543.002 465.501 536.358 461.578 533.652C451.557 532.611 447.578 546.298 439.331 549.485C437.248 547.873 436.701 545.386 436.176 542.92C433.93 532.371 435.802 507.471 437.573 496.413C438.077 493.267 439.381 490.425 439.817 487.231C440.161 484.717 439.684 480.094 440.814 477.977C442.265 475.257 445.743 475.892 448.036 474.082C450.446 472.178 452.966 467.104 454.729 464.455C456.585 463.987 458.448 464.382 460.322 464.612L462.59 464.062Z"/><path fill="#E720CB" d="M565.419 477.54C570.034 479.819 573.693 486.268 575.89 491.008C577.102 493.621 576.379 494.816 575.455 497.275C571.598 495.304 566.222 490.295 564.504 486.313C563.051 482.945 564.06 480.724 565.419 477.54Z"/><path fill="#E720CB" d="M554.953 462.61C557.915 463.448 560.667 464.294 563.413 465.701C564.634 468.167 564.386 468.463 563.664 470.979C560.948 471.888 559.852 472.463 556.988 471.956C554.84 469.762 555.139 465.551 554.953 462.61Z"/><path fill="#E720CB" d="M459.933 466.112C460.162 469.029 461.104 472.4 458.999 474.81C458.081 475.861 456.745 476.745 455.617 477.565C454.561 476.666 453.783 475.552 452.947 474.455L453.562 471.436C455.547 469.115 457.237 467.563 459.933 466.112Z"/><path fill="#FCF9FD" d="M422.788 563.124C431.185 567.33 441.567 566.231 450.537 567.851C452.56 568.216 453.296 568.418 454.501 570.073L452.745 571.947C448.674 572.406 444.588 572.71 440.494 572.859C435.546 572.99 427.54 572.976 423.768 569.416C423.098 567.199 422.72 565.468 422.788 563.124Z"/><path fill="#FCF9FD" d="M592.552 566.49C597.1 566.392 601.547 566.061 605.638 568.321L605.417 570.069L605.853 569.91L604.226 570.421L605.892 569.369L606.284 571.121L604.246 571.167C598.236 571.355 590.482 571.221 584.807 569.268C585.981 567.678 590.508 567.047 592.552 566.49Z"/><path fill="#FCF9FD" d="M596.695 500.087C598.336 500.439 599.941 500.971 601.547 501.456C603.33 504.456 602.871 506.827 602.857 510.217C599.33 508.399 598.046 503.547 596.695 500.087Z"/><path fill="#B4ECF6" d="M223.163 590.84C234.297 589.635 245.648 588.078 256.838 587.723C286.318 586.787 315.756 588.95 345.223 589.171C357.845 589.266 370.437 587.128 383.082 587.584C386.284 587.699 390.269 587.969 392.863 590.05C396.553 593.01 397.88 598.834 398.263 603.314C399.801 621.325 398.785 641.746 397.646 659.826C396.608 676.306 392.928 694.896 396.751 710.999C395.222 715.76 392.872 729.699 388.617 731.926C379.519 736.686 337.396 724.357 326.135 720.601C315.579 717.081 304.537 711.849 293.907 709.073C287.52 706.665 281.533 704.047 275.529 700.797C275.22 700.683 274.909 700.575 274.607 700.444C256.795 692.754 200.255 647.989 187.559 632.2C185.665 629.844 184.464 626.824 183.349 624.037C177.433 620.148 162.074 602.416 160.275 595.417C159.936 594.099 160.329 593.871 160.971 592.754C170.155 589.172 214.387 587.288 223.163 590.84Z"/><path fill="#FCF9FD" d="M183.349 624.037C177.433 620.148 162.074 602.416 160.275 595.417C159.936 594.099 160.329 593.871 160.971 592.754C170.155 589.172 214.387 587.288 223.163 590.84L223.722 593.002C235.157 594.797 247.914 593.257 259.55 593.592C271.268 593.93 274.372 596.578 284.186 598.774C287.234 599.455 290.439 598.937 293.443 599.776C285.964 600.347 271.516 598.345 265.197 600.311C257.364 602.746 222.917 600.83 212.532 600.601C208.118 600.504 201.926 599.568 197.76 600.921C194.749 601.898 188.806 606.44 186.59 608.79C185.402 612.95 189.815 621.119 188.067 622.057C186.957 622.652 185.439 622.757 184.203 622.941L183.349 624.037Z"/><path fill="#FCF9FD" d="M275.529 700.797C275.608 696.422 275.614 692.738 274.113 688.538L274.868 685.729C278.287 686.981 280.566 689.925 283.728 691.567C285.206 692.334 286.734 692.086 288.095 693.232C289.695 694.58 290.694 696.5 291.552 698.373C293.026 701.592 292.994 705.588 293.907 709.073C287.52 706.665 281.533 704.047 275.529 700.797Z"/><path fill="#79E1F2" d="M252.103 644.492C251.046 644.529 225.348 641.119 223.999 640.74C222.813 640.406 221.649 639.499 220.735 638.691C218.016 636.288 216.597 633.591 216.39 629.99C218.031 627.33 218.076 625.123 218.155 622.071C220.203 622.909 221.438 624.617 222.864 626.242L222.552 629.932L223.42 630.391L225.169 628.495C225.175 624.868 223.256 623.049 221.28 620.12L221.534 619.134L224.046 619.346C230.123 623.506 226.811 627.077 228.559 632.935L231.093 632.301C233.513 630.173 233.612 627.65 234.052 624.628C237.351 625.084 239.129 628.276 241.851 630.248L244.145 629.406C245.681 626.073 241.748 623.551 242.064 619.578C242.606 618.559 243.219 617.283 244.157 616.561C246.291 614.918 248.767 614.803 251.381 615.32C253.147 615.668 253.984 616.579 254.831 618.044C252.408 617.334 249.995 616.646 247.538 616.065L245.928 617.604C245.507 621.949 245.633 624.987 248.232 628.634L248.648 629.208C248.116 626.242 247.633 623.751 248.322 620.774C248.953 620.218 249.621 619.301 250.479 619.332C251.018 619.351 251.556 619.399 252.084 619.513C256.842 620.542 260.194 627.468 264.946 627.776C273.36 628.32 282.846 627.347 291.243 626.219C297.733 625.347 324.699 618.175 329.356 623.091C331.5 625.354 331.828 628.151 335.406 628.284C338.688 628.406 341.773 627.187 344.689 629.277C346.016 632.298 343.42 634.772 343.98 637.049C345.081 641.526 349.408 641.474 348.146 647.057C344.61 651.138 338.257 652.655 333.001 653.055C330.128 653.274 326.709 653.074 324.009 652.047L325.796 655.326C331.27 656.555 333.252 661.439 338.982 661.518C341.75 659.872 339.926 658.148 340.77 655.559C341.981 651.842 348.48 651.026 350.746 647.36C350.771 644.394 349.968 642.522 348.663 639.901L352.777 641.475L354.259 638.477L356.135 638.024C360.203 643.48 363.254 649.467 367.625 654.713L368.412 657.294L369.298 657.396C369.529 659.517 369.216 661.282 370.933 662.741C372.161 663.783 374.415 664.229 375.952 664.682L373.172 671.563C373.089 673.674 373.095 675.828 372.876 677.928C370.689 679.493 369.687 680.88 369.211 683.656C369.04 684.653 369.299 685.772 369.529 686.739C372.758 689.811 376.585 687.227 378.767 690.72C378.658 695.834 375.537 700.374 371.902 703.791C368.968 706.55 364.808 708.198 360.767 708.054C356.519 707.902 351.372 706.459 348.353 703.433C347.055 702.131 345.761 700.838 344.504 699.494C340.407 699.582 332.196 700.676 328.812 698.655C327.337 696.38 326.704 694.388 323.867 693.698C313.447 691.165 314.022 695.731 307.029 683.938C306.549 683.128 306.345 682.202 306.208 681.279L306.829 680C304.369 676.381 300.677 674.31 299.38 669.859L300.141 668.84C298.049 668.034 297.405 668.689 295.41 669.515C292.043 665.79 288.317 662.613 284.847 659.011L282.467 657.977C280.697 658.82 279.088 659.776 277.437 660.825C274.447 659.572 273.701 656.845 271.603 654.522C270.155 652.92 268.741 652.907 266.751 652.947C263.598 653.012 261.519 653.677 259.364 655.941C258.872 665.852 271.784 668.037 274.691 674.03C275.51 675.717 275.202 676.015 274.551 677.645C274.043 677.703 272.75 678.019 272.316 677.902C270.194 677.329 267.167 674.116 265.255 672.87C260.073 669.491 253.646 667.004 248.889 663.146C246.841 661.485 245.133 659.301 244.914 656.613C244.848 655.792 245.703 655.222 246.242 654.632C248.925 654.138 250.745 655.156 253.12 656.26L253.518 657.282L255.395 657.418L256.9 655.853C257.003 651.038 254.939 648.207 252.103 644.492Z"/><defs><linearGradient id="gradient_5" gradientUnits="userSpaceOnUse" x1="364.35153" y1="707.039" x2="325.01852" y2="659.8175"><stop offset="0" stop-color="#54C9F3"/><stop offset="1" stop-color="#6BE1F8"/></linearGradient></defs><path fill="url(#gradient_5)" d="M352.777 641.475L354.259 638.477L356.135 638.024C360.203 643.48 363.254 649.467 367.625 654.713L368.412 657.294L369.298 657.396C369.529 659.517 369.216 661.282 370.933 662.741C372.161 663.783 374.415 664.229 375.952 664.682L373.172 671.563C373.089 673.674 373.095 675.828 372.876 677.928C370.689 679.493 369.687 680.88 369.211 683.656C369.04 684.653 369.299 685.772 369.529 686.739C372.758 689.811 376.585 687.227 378.767 690.72C378.658 695.834 375.537 700.374 371.902 703.791C368.968 706.55 364.808 708.198 360.767 708.054C356.519 707.902 351.372 706.459 348.353 703.433C347.055 702.131 345.761 700.838 344.504 699.494C340.407 699.582 332.196 700.676 328.812 698.655C327.337 696.38 326.704 694.388 323.867 693.698C313.447 691.165 314.022 695.731 307.029 683.938C306.549 683.128 306.345 682.202 306.208 681.279L306.829 680L308.072 679.471C311.159 676.137 315.981 673.556 319.634 670.696L318.109 668.529C316.703 665.025 306.191 664.401 302.92 660.532C302.091 657.927 302.137 656.386 302.69 653.737L305.192 652.839C304.742 655.611 304.272 656.563 305.497 659.151C309.529 662.097 313.931 666.191 319.329 665.148C320.4 664.941 321.344 664.295 322.209 663.664C323.03 661.532 323.528 659.68 323.804 657.406L325.796 655.326C331.27 656.555 333.252 661.439 338.982 661.518C341.75 659.872 339.926 658.148 340.77 655.559C341.981 651.842 348.48 651.026 350.746 647.36C350.771 644.394 349.968 642.522 348.663 639.901L352.777 641.475Z"/><path fill="#4FBCDF" d="M352.777 641.475L354.259 638.477L356.135 638.024C360.203 643.48 363.254 649.467 367.625 654.713C366.52 659.766 359.625 662.679 355.755 666.42L353.857 666.189C352.332 664.139 352.288 663.278 352.012 660.818C352.876 658.837 353.813 657.501 355.252 655.915L355.725 655.398C355.784 651.124 354.467 646.123 353.014 642.118L352.777 641.475Z"/><path fill="#77E2F5" d="M319.634 670.696C322.436 670.081 324.655 669.409 327.406 670.577L328.23 672.385C326.944 675.434 323.482 677.52 320.531 678.734C317.252 680.083 313.395 682.104 309.884 681.495L308.072 679.471C311.159 676.137 315.981 673.556 319.634 670.696Z"/><path fill="#77E2F5" d="M368.412 657.294L369.298 657.396C369.529 659.517 369.216 661.282 370.933 662.741C372.161 663.783 374.415 664.229 375.952 664.682L373.172 671.563C369.394 670.557 363.691 669.759 361.088 666.898C362.87 662.833 366.677 662.012 368.412 657.294Z"/><path fill="#4FBCDF" d="M362.379 672.208C365.449 673.121 366.847 673.519 368.865 676.041C369.547 679.175 367.629 682.489 366.412 685.329C364.311 684.819 363.471 683.489 362.231 681.868C361.159 678.383 361.673 675.729 362.379 672.208Z"/><path fill="#79E1F2" d="M252.103 644.492C251.046 644.529 225.348 641.119 223.999 640.74C222.813 640.406 221.649 639.499 220.735 638.691C218.016 636.288 216.597 633.591 216.39 629.99C218.031 627.33 218.076 625.123 218.155 622.071C220.203 622.909 221.438 624.617 222.864 626.242L222.552 629.932L223.42 630.391L225.169 628.495C225.175 624.868 223.256 623.049 221.28 620.12L221.534 619.134L224.046 619.346C230.123 623.506 226.811 627.077 228.559 632.935L231.093 632.301C233.513 630.173 233.612 627.65 234.052 624.628C237.351 625.084 239.129 628.276 241.851 630.248L244.145 629.406C245.681 626.073 241.748 623.551 242.064 619.578C242.606 618.559 243.219 617.283 244.157 616.561C246.291 614.918 248.767 614.803 251.381 615.32C253.147 615.668 253.984 616.579 254.831 618.044C252.408 617.334 249.995 616.646 247.538 616.065L245.928 617.604C245.507 621.949 245.633 624.987 248.232 628.634L248.648 629.208L249.383 629.746C256.983 638.56 273.27 635.054 283.15 639.053C287.812 640.94 292.006 646.813 296.909 647.476C301.255 648.062 305.219 645.175 309.649 646.973L310.324 648.035C308.593 649.615 306.883 651.216 305.192 652.839L302.69 653.737C302.137 656.386 302.091 657.927 302.92 660.532C306.191 664.401 316.703 665.025 318.109 668.529L319.634 670.696C315.981 673.556 311.159 676.137 308.072 679.471L306.829 680C304.369 676.381 300.677 674.31 299.38 669.859L300.141 668.84C298.049 668.034 297.405 668.689 295.41 669.515C292.043 665.79 288.317 662.613 284.847 659.011L282.467 657.977C280.697 658.82 279.088 659.776 277.437 660.825C274.447 659.572 273.701 656.845 271.603 654.522C270.155 652.92 268.741 652.907 266.751 652.947C263.598 653.012 261.519 653.677 259.364 655.941C258.872 665.852 271.784 668.037 274.691 674.03C275.51 675.717 275.202 676.015 274.551 677.645C274.043 677.703 272.75 678.019 272.316 677.902C270.194 677.329 267.167 674.116 265.255 672.87C260.073 669.491 253.646 667.004 248.889 663.146C246.841 661.485 245.133 659.301 244.914 656.613C244.848 655.792 245.703 655.222 246.242 654.632C248.925 654.138 250.745 655.156 253.12 656.26L253.518 657.282L255.395 657.418L256.9 655.853C257.003 651.038 254.939 648.207 252.103 644.492Z"/><path fill="#77E2F5" d="M252.103 644.492C259.636 648.29 260.897 643.784 267.643 644.65C271.175 645.103 273.935 649.015 277.288 649.767C284.534 651.393 288.659 644.305 295.303 653.512C297.122 656.224 298.618 657.706 298.767 661.064C294.669 663.025 289.018 660.407 284.847 659.011L282.467 657.977C280.697 658.82 279.088 659.776 277.437 660.825C274.447 659.572 273.701 656.845 271.603 654.522C270.155 652.92 268.741 652.907 266.751 652.947C263.598 653.012 261.519 653.677 259.364 655.941C258.872 665.852 271.784 668.037 274.691 674.03C275.51 675.717 275.202 676.015 274.551 677.645C274.043 677.703 272.75 678.019 272.316 677.902C270.194 677.329 267.167 674.116 265.255 672.87C260.073 669.491 253.646 667.004 248.889 663.146C246.841 661.485 245.133 659.301 244.914 656.613C244.848 655.792 245.703 655.222 246.242 654.632C248.925 654.138 250.745 655.156 253.12 656.26L253.518 657.282L255.395 657.418L256.9 655.853C257.003 651.038 254.939 648.207 252.103 644.492Z"/><path fill="#6ADAF6" d="M284.208 651.563C285.993 651.543 287.791 651.68 289.574 651.761C292.583 653.718 293.141 655.413 294.792 658.615C292.905 658.419 290.781 658.281 288.978 657.681C286.777 656.949 285.261 653.494 284.208 651.563Z"/><path fill="#6ADAF6" d="M249.383 629.746C258.626 633.942 274.742 635.799 284.953 636.478C288.599 639.487 292.097 642.353 296.252 644.657C300.996 644.359 306.176 643.532 310.753 645.077L312.071 646.683C311.629 650.85 307.665 652.594 307.574 656.667L308.94 657.521C317.31 654.396 310.645 649.527 324.009 652.047L325.796 655.326L323.804 657.406C323.528 659.68 323.03 661.532 322.209 663.664C321.344 664.295 320.4 664.941 319.329 665.148C313.931 666.191 309.529 662.097 305.497 659.151C304.272 656.563 304.742 655.611 305.192 652.839C306.883 651.216 308.593 649.615 310.324 648.035L309.649 646.973C305.219 645.175 301.255 648.062 296.909 647.476C292.006 646.813 287.812 640.94 283.15 639.053C273.27 635.054 256.983 638.56 249.383 629.746Z"/><path fill="#79E1F2" d="M348.663 639.901C348.816 633.836 354.435 630.461 352.527 626.453C347.238 622.443 337.569 622.842 333.851 617.678C335.399 616.543 336.159 616.72 338 617.002C344.001 617.919 349.642 622.266 355.946 621.176C360.607 620.37 365.55 612.505 369.434 617.334C370.435 623.158 368.477 623.703 368.011 628.283C367.761 630.742 371.229 633.621 370.386 636.113C367.55 636.419 365.533 636.543 363.32 638.515L362.698 640.288C365.78 646.123 369.632 650.613 369.298 657.396L368.412 657.294L367.625 654.713C363.254 649.467 360.203 643.48 356.135 638.024L354.259 638.477L352.777 641.475L348.663 639.901Z"/><path fill="#FCF9FD" d="M305.641 594.651C315.77 594.142 329.927 593.562 339.872 595.122C342.901 595.598 345.69 596.484 347.574 599.019L347.239 601.129C333.638 599.26 318.772 600.854 304.973 600.242L304.239 599.356L305.641 594.651Z"/><path fill="#79E1F2" d="M375.952 664.682L377.219 663.304C379.122 664.217 380.163 665.894 380.794 667.854C381.665 670.561 381.286 672.504 380.01 674.963C377.467 677.06 376.186 677.528 372.876 677.928C373.095 675.828 373.089 673.674 373.172 671.563L375.952 664.682Z"/><path fill="#79E1F2" d="M253.12 656.26C250.451 654.359 247.438 652.595 245.947 649.575L246.284 647.769C247.906 646.779 248.947 646.133 250.873 646.075C253.104 648.657 255.385 651.025 256.455 654.339L255.51 655.872L253.12 656.26Z"/><path fill="#77E2F5" d="M373.064 678.37L376.295 680.826C376.878 684.074 375.819 685.248 374.438 688.184C372.74 687.843 372.439 687.503 371.169 686.403C370.485 683.454 371.904 681.011 373.064 678.37Z"/><path fill="#F14748" d="M140.799 574.51C146.917 574.426 153.091 574.266 159.196 574.753C164.561 575.182 176.519 575.871 180.176 580.171C179.531 582.265 173.575 583.497 171.226 584.775L170.51 585.169C168.104 586.071 154.576 587.931 151.543 588.029C146.972 588.177 143.119 588.364 139.61 585.102C139.941 581.564 140.337 578.033 140.799 574.51Z"/><path fill="#CD0F2C" d="M386.607 101.076C389.31 100.641 391.692 100.103 394.358 100.997C397.05 103.348 400.001 106.034 401.442 109.382C402.459 111.748 403.088 115.279 401.932 117.703C400.945 119.773 398.506 120.04 396.475 120.777L395.88 122.062L393.522 122.466C384.97 118.443 390.88 109.018 386.607 101.076Z"/><path fill="#CD0F2C" d="M410 474.491C411.027 474.897 411.835 475.504 412.741 476.123C413.321 477.723 413.556 479.209 413.589 480.91C413.715 487.337 413.134 497.421 408.782 502.043C404.944 496.838 405.304 488.479 405.604 482.215C405.801 478.104 407.133 477.079 410 474.491Z"/><path fill="#D6486A" d="M508.489 301.989C509.339 302.451 509.958 302.855 510.623 303.571C516.08 309.447 519.818 314.955 519.539 323.175C517.192 322.008 514.997 320.738 513.151 318.845C508.384 313.962 508.348 308.345 508.489 301.989Z"/><path fill="#2A2777" d="M92.035 257.185C94.1914 247.012 94.9076 247.805 100.831 239.517C103.794 235.371 108.293 216.657 113.464 215.361C117.438 221.235 104.517 255.348 100.751 259.543L100.45 259.754C90.0411 267.145 87.6405 281.334 80.5629 283.626C76.9472 282.484 76.7436 279.847 75.8661 276.31C77.4275 268.391 86.1907 262.795 92.035 257.185Z"/><path fill="#2F28A7" d="M75.8661 276.31C78.2075 274.233 81.481 268.892 84.7586 267.743C97.067 263.429 93.858 248.109 100.194 243.879L102.205 245.237C103.564 248.265 101.453 255.425 100.751 259.543L100.45 259.754C90.0411 267.145 87.6405 281.334 80.5629 283.626C76.9472 282.484 76.7436 279.847 75.8661 276.31Z"/><path fill="#2F28A7" d="M579.107 102.979C588.074 101.043 595.891 110.873 603.105 115.241C606.204 117.118 609.918 117.954 613.222 119.512L607.464 120.814C607.168 122.557 607.172 123.689 606.028 125.116C598.478 120.257 586.871 116.168 580.906 109.762C578.851 107.556 578.984 105.768 579.107 102.979Z"/><path fill="#2F28A7" d="M433.946 781.098C438.985 780.87 443.757 779.798 447.887 783.117C448.274 785.067 448.633 785.558 447.519 787.324C444.93 791.428 440.273 792.254 435.895 793.283C431.498 792.423 423.853 790.496 420.665 787.319C422.332 783.198 430.088 782.869 433.946 781.098Z"/><path fill="#2F28A7" d="M56.9282 444.593C57.316 444.748 57.4879 444.786 57.8351 445.103C65.4467 452.051 61.3429 462.222 61.49 471.094C60.237 471.408 59.5715 471.428 58.2993 471.114C57.1699 470.836 57.0774 470.866 56.5107 469.824C52.733 462.877 54.7574 451.729 56.9282 444.593Z"/><path fill="#2F28A7" d="M752.68 461.984C753.457 459.079 753.943 456.086 756.221 453.954L757.41 454.572C758.77 460.241 757.41 464.143 757.404 469.667C755.987 472.729 753.936 477.104 751.026 478.703C749.501 476.685 749.464 475.168 749.65 472.635C749.87 469.631 750.345 464.038 752.68 461.984Z"/><path fill="#2A2777" d="M757.404 469.667C755.987 472.729 753.936 477.104 751.026 478.703C749.501 476.685 749.464 475.168 749.65 472.635C749.87 469.631 750.345 464.038 752.68 461.984C752.268 464.671 751.238 468.296 752.451 470.785C754.753 471.228 755.369 470.666 757.404 469.667Z"/><path fill="#2A2777" d="M747.299 366.254C749.839 366.529 750.712 366.405 752.672 368.176C755.162 374.518 754.227 380.314 752.415 386.653C751.282 386.496 750.662 385.713 749.877 384.956C747.94 379.069 746.714 372.449 747.299 366.254Z"/><path fill="#2A2777" d="M57.0361 355.24C59.8226 355.501 61.0443 355.079 62.9467 357.222C63.8516 361.742 61.186 367.257 59.7586 371.54L57.9861 371.735L56.2416 369.731C55.0798 365.183 56.4084 359.835 57.0361 355.24Z"/><path fill="#2F28A7" d="M105.223 609.185L108.304 610.566C111.681 614.528 115.207 620.465 115.748 625.731C112.329 624.904 108.114 622.219 106.186 619.241C103.962 615.806 104.445 613.046 105.223 609.185Z"/><path fill="#2F28A7" d="M72.0313 286.58C73.0992 289.248 73.2477 292.667 73.5527 295.501L77.0135 296.935C74.815 298.376 73.1443 300.053 71.341 301.943C70.6371 302.755 69.3789 303.491 68.4998 304.144L67.4415 303.035C66.2266 296.451 68.5469 291.972 72.0313 286.58Z"/><path fill="#2F28A7" d="M390.473 58.8025C394.511 58.3481 398.856 58.1932 402.394 60.4521C403.518 62.7671 403.185 63.04 402.398 65.3593C399.922 65.5877 397.427 65.4693 394.985 65.0077C392.401 64.506 391.08 63.6229 389.617 61.5158L390.473 58.8025Z"/><path fill="#2F28A7" d="M265.792 86.4147C268.075 87.5461 268.937 87.8339 270.314 90.0724C269.286 93.0595 267.831 93.781 265.424 95.7605C263.197 94.8156 262.733 94.8067 261.625 92.5292C262.373 89.7141 263.716 88.3758 265.792 86.4147Z"/><path fill="#2A2777" d="M664.03 676.571C665.157 676.662 666.241 677.13 667.304 677.495C668.01 680.443 666.588 682.661 665.523 685.432C662.986 684.938 662.252 685.043 660.532 682.98C660.726 680.041 662.14 678.66 664.03 676.571Z"/><path fill="#2F28A7" d="M61.0456 488.236C63.1903 488.844 64.2986 489.604 65.9569 491.062C66.532 493.907 65.8955 494.773 64.8522 497.423C63.7407 496.984 62.6232 496.213 61.5794 495.614C60.3487 492.656 60.7059 491.371 61.0456 488.236Z"/><path fill="#2A2777" d="M677.573 656.01C679.7 656.339 681.22 657.009 683.089 657.993C684.514 660.737 684.298 661.664 684.137 664.681L681.449 664.813C678.899 663.136 678.339 658.837 677.573 656.01Z"/><path fill="#2F28A7" d="M257.782 746.843C259.471 746.799 260.829 747.175 262.445 747.637C264.576 749.355 265.421 750.526 266.259 753.135C264.764 752.909 262.96 752.726 261.573 752.123C259.227 751.104 258.619 749.009 257.782 746.843Z"/><path fill="#F14748" d="M871.251 151.195C904.864 149.948 938.995 151.096 972.643 151.215C1036.88 151.442 1125.44 145.071 1178.77 187.563C1200.96 205.237 1213.28 230.218 1216.34 258.2C1220.27 294.188 1212.61 336.108 1189.52 364.687C1161.97 398.78 1118.62 410.924 1076.8 415.419L1129.34 489.445C1146.5 513.813 1163.74 538.91 1182.95 561.713C1193.02 573.674 1204.32 584.766 1215.54 595.637C1220.52 600.457 1226.27 605.015 1230.75 610.257C1232.48 612.285 1234.6 615.109 1235.04 617.811C1235.41 620.121 1234.71 621.107 1233.35 622.846C1221.06 628.308 1138.23 625.586 1119.44 625.552C1117.59 625.437 1115.68 625.321 1113.86 624.916C1098.5 621.49 1103.18 598.156 1098.07 586.37C1090.47 568.821 1078.56 551.947 1068.54 535.667C1043.64 495.605 1018.06 455.974 991.796 416.791C980.905 416.277 969.974 416.108 959.074 415.781C956.141 465.386 955.507 515.1 957.174 564.764C957.68 577.55 964.452 611.412 961.062 621.11C959.844 622.681 958.675 624.126 956.708 624.763C950.311 626.834 874.83 626.312 864.131 625.389C859.932 625.027 856.105 624.322 852.308 622.388C850.139 619.142 850.234 616.061 850.78 612.234C852.332 601.363 856.863 590.284 859.541 579.537C864.134 561.111 867.321 542.574 870.194 523.818C873.997 498.987 875.838 473.568 878.136 448.552C884.086 383.771 888.39 318.244 883.516 253.237C882.032 233.434 880.079 213.989 875.768 194.572C873.767 185.56 865.105 163.819 866.02 156.546C867.099 153.713 868.787 152.743 871.251 151.195ZM962.171 370.893C1002.15 370.925 1051.4 376.34 1086.21 353.44C1104.77 340.461 1114.37 324.024 1118.31 301.735C1122.6 277.403 1121.73 244.964 1106.89 224.014C1095.62 208.1 1076.68 200.931 1058.07 197.843C1032.89 193.664 1005.53 195.69 980.064 195.773C971.575 239.226 969.464 284.445 965.872 328.532C964.732 342.525 964.161 357.006 962.171 370.893Z"/><path fill="#F14748" d="M2852.74 293.144C2854.71 292.875 2857.01 292.767 2858.97 293.038C2861.14 293.338 2863.38 294.634 2864.63 296.434C2868.71 302.274 2875.93 370.956 2874.37 379.672C2873.86 382.539 2872.24 383.947 2869.97 385.552C2861.87 385.176 2845.44 370.851 2837.42 366.416C2831.82 363.319 2825.9 361.104 2819.91 358.9C2823.31 368.82 2825.54 378.907 2826 389.407C2827.36 420.261 2816.13 452.692 2795.09 475.395C2765.06 507.794 2720.33 518.732 2677.71 520.23C2674.68 525.188 2670.14 531.249 2669.35 537.122C2669.13 538.79 2669.42 541.164 2670.54 542.513C2676.26 549.419 2690.76 554.47 2698.91 558.417C2727.67 572.34 2796.83 602.986 2814.19 626.767C2823.08 638.938 2826.19 653.796 2823.78 668.607C2820.58 688.227 2807.86 704.867 2792.02 716.29C2742.45 752.056 2650.39 755.435 2592.08 745.856C2568.92 742.308 2544.92 736.709 2525.48 723.017C2513.76 714.768 2505.06 703.56 2502.65 689.195C2500.09 673.97 2504.79 657.923 2513.66 645.489C2536.08 614.052 2579.39 605.663 2615.06 599.559C2613.81 598.478 2612.6 597.351 2611.43 596.179C2603.97 588.722 2598.81 579.883 2598.85 569.009C2598.93 548.175 2615.68 528.89 2629.57 515.065C2613.82 511.583 2598.19 505.186 2585 495.857C2565.49 482.065 2550.6 461.64 2546.59 437.801C2541.91 410.028 2551.1 378.332 2567.37 355.696C2591.81 321.685 2635.56 304.609 2675.78 298.139C2716.02 291.667 2755.69 294.549 2789.59 319.083C2809.98 308.897 2831.08 300.227 2852.74 293.144ZM2687.33 474.616C2706.5 469.409 2722.65 459.314 2732.79 441.765C2743.58 423.09 2746.15 395.472 2740.46 374.802C2737.26 363.17 2730.42 353.242 2719.82 347.228C2707.94 340.489 2695.11 340.166 2681.83 341.302C2665.38 344.248 2652.78 351.241 2643.13 365.175C2629.44 384.924 2624.34 413.287 2628.78 436.755C2631.14 449.241 2636.92 462.142 2647.78 469.439C2659.43 477.267 2674.02 477.001 2687.33 474.616ZM2681.24 703.035C2696.58 701.461 2728.4 697.824 2738.4 685.273C2739.96 683.312 2740.93 681.044 2740.6 678.506C2739.74 671.858 2731.43 665.434 2726.31 661.692C2715.29 653.64 2659.19 621.434 2646.56 617.842C2630.25 629.18 2589.63 655.06 2585.8 675.527C2585.05 679.527 2585.86 683.395 2588.29 686.675C2596.31 697.474 2617.78 700.667 2630.07 702.237C2647.16 704.42 2664.09 704.309 2681.24 703.035Z"/><path fill="#F14748" d="M1888.54 119.344C1890.14 119.549 1891.92 119.733 1893.34 120.545C1896.98 122.631 1897.43 125.987 1896.95 129.799C1895.83 138.731 1892.34 147.692 1889.74 156.29C1886.57 166.676 1884.04 177.248 1882.17 187.946C1877.71 214.54 1875.32 241.592 1871.94 268.341C1862.37 344.264 1851.45 420.527 1848.82 497.079C1848.46 507.412 1846.66 520.61 1849.53 530.508C1852.21 539.797 1882.47 527.87 1890.43 532.598C1892.41 533.775 1893.51 535.334 1893.91 537.609C1894.48 540.897 1892.95 543.831 1891.11 546.406C1885.09 554.801 1876.71 562.107 1869.38 569.374C1852.77 585.83 1822.03 618.868 1798.49 622.694C1788.21 624.367 1777.4 624.175 1768.64 617.733C1759.97 611.361 1756.99 602.099 1755.5 591.988C1744.52 601.618 1732.54 610.214 1719.16 616.19C1694.56 627.175 1669.6 627.512 1644.59 617.886C1617.22 605.574 1598.03 581.722 1587.26 554.153C1568.86 507.088 1575.62 445.246 1595.84 399.392C1612.39 361.829 1640.73 328.864 1679.73 313.866C1713.78 300.771 1747.57 304.744 1780.31 319.268C1781.27 281.463 1781.59 242.963 1776.66 205.422C1775.43 196.071 1773.9 186.511 1771.52 177.381C1768.98 167.634 1760.8 155.52 1762.72 145.453C1764.77 142.782 1767.54 141.996 1770.72 141.06C1785.25 136.786 1801.24 134.933 1816.15 132.188C1840.22 127.757 1864.31 122.746 1888.54 119.344ZM1688.84 558.937C1706.47 563.447 1721.85 558.679 1737.2 549.541C1745.85 544.389 1754.21 538.07 1761.71 531.344L1772.32 433.489C1775.02 408.136 1778.07 382.774 1778.93 357.274C1771.05 355.346 1763.19 353.758 1755.03 354.377C1730.2 356.841 1710.05 369.354 1694.29 388.541C1669.44 418.808 1657.43 473.535 1661.32 512.269C1662.84 527.389 1667.78 543.915 1680.11 553.794C1682.73 555.896 1685.75 557.628 1688.84 558.937Z"/><path fill="#F14748" d="M3063.66 296.394C3066.61 296.079 3069.55 295.997 3072.51 295.935C3104.48 295.269 3135.62 302.771 3159.16 325.543C3186.42 351.923 3195.77 389.562 3196.27 426.412C3196.99 480.685 3182.34 544.303 3143.48 584.06C3114.11 614.095 3074.12 623.794 3033.4 624.207C3000.06 624.563 2965.71 617.039 2939.61 595.242C2913.95 573.815 2901.97 542.919 2899.01 510.256C2894.16 456.706 2908.57 398.609 2943.44 357.105C2974.06 320.66 3016.58 300.417 3063.66 296.394ZM3036.04 579.507C3054 577.561 3067.17 570.024 3078.55 555.943C3107 520.748 3118.19 447.696 3113.4 403.079C3111.38 384.238 3105.68 362.89 3090.29 350.435C3081.74 343.513 3070.47 340.443 3059.54 341.317C3040.48 343.658 3026.96 352.632 3015.17 367.68C2986.13 404.779 2976.34 473.569 2982.14 519.673C2984.46 538.074 2990.32 558.885 3005.65 570.778C3014.36 577.54 3025.13 580.09 3036.04 579.507Z"/><path fill="#F14748" d="M2341.13 295.452C2367.26 293.969 2395.89 297.522 2419.95 307.832C2479.17 333.217 2477.87 380.084 2470.14 435.446C2467.09 457.764 2463.68 480.031 2459.9 502.237C2458.35 511.519 2453.79 526.184 2457.28 534.964C2465.73 542.606 2485.32 531.17 2496.55 533.87C2499.16 534.498 2500.5 535.619 2501.85 537.904C2502.64 541.205 2502.47 544.066 2500.64 547.025C2490.95 562.71 2444.58 604.276 2427.84 615.16C2421.62 619.209 2414.75 622.523 2407.45 624.062C2399.46 625.745 2390.71 625.229 2383.78 620.555C2374.45 614.271 2371.87 604.212 2369.88 593.85C2365.73 597.514 2361.12 600.973 2356.53 604.054C2331.14 621.078 2296.88 628.719 2266.71 622.579C2243.12 617.78 2225.22 603.231 2212.16 583.508C2202.64 568.13 2198.26 550.115 2199.68 532.083C2201.49 506.295 2210.22 479.719 2230.25 462.367C2270.44 427.556 2338.08 430.27 2387.68 433.65C2390.68 413.123 2395.73 388.873 2388.18 368.855C2384.06 357.937 2376.26 350.245 2365.68 345.529C2323.18 326.584 2286.63 357.438 2261.97 389.496C2256.98 395.977 2244.37 416.378 2236.92 418.97C2234.81 419.705 2234.12 419.379 2232.19 418.453C2230.17 415.751 2229.52 413.231 2229.22 409.89C2228.31 399.721 2237.18 323.48 2242.31 317.691C2255.05 303.315 2320.89 296.334 2341.13 295.452ZM2296.72 555.138C2313 563.761 2330.82 561.623 2347.88 556.363C2356.71 553.642 2365.42 550.039 2373.76 546.054C2377.22 519.243 2382.31 491.673 2383.66 464.748C2381.49 463.665 2380.37 464.119 2378 464.413C2350.58 467.152 2310.3 472.523 2292.06 495.051C2283.83 505.227 2281.68 518.294 2283.08 531.045C2284.05 539.932 2287.79 548.04 2294.85 553.75C2295.46 554.239 2296.08 554.694 2296.72 555.138Z"/><path fill="#F14748" d="M3349.93 295.264C3351.75 295.016 3353.77 294.645 3355.6 294.741C3358.24 294.879 3359.52 296.346 3361.23 298.082C3365.5 309.06 3351.17 336.997 3347.28 348.999C3371.19 329.687 3396.61 313.363 3426.28 304.395C3449.97 297.233 3478.69 294.56 3501.25 306.795C3516.56 315.099 3526.01 329.38 3530.06 346.085C3537.05 374.897 3523.88 464.896 3520.84 499.23C3519.95 509.323 3516.9 524.339 3520.29 533.958C3523.19 542.207 3551.92 530.714 3561.97 534.966C3563.85 536.974 3565.01 538.217 3564.85 541.176C3564.3 551.736 3528.49 583.065 3519.56 591.115C3502.32 606.649 3483.73 625.749 3458.65 624.126C3451.3 623.651 3444.72 620.06 3439.97 614.471C3434.66 608.22 3432.98 600.922 3432.49 592.975C3431.28 573.322 3435.69 551.423 3437.89 531.811C3442.41 492.836 3446.55 453.815 3450.28 414.756C3450.71 410.817 3450.86 406.872 3450.95 402.913C3451.27 389.154 3451.22 369.252 3440.86 358.727C3437.03 354.841 3432.02 353.011 3426.61 352.973C3398.35 352.775 3357.66 391.71 3338.18 410.85C3335.72 450.173 3332.04 490.28 3333.42 529.684C3333.8 540.812 3334.18 552.386 3335.69 563.42C3337.23 574.604 3340.18 586.275 3340.6 597.518C3340.71 600.462 3340.66 603.85 3339.22 606.502C3337.89 608.972 3335.47 609.825 3332.89 610.582C3316.98 615.258 3298.9 616.599 3282.5 619.498C3268.84 621.914 3254.63 626.031 3240.85 627.136C3237.83 627.378 3233.52 627.467 3230.85 625.781C3228.33 624.196 3228.07 622.274 3228.4 619.501C3229.57 609.457 3234.62 599.07 3237.5 589.347C3241.99 573.905 3245.41 558.173 3247.74 542.263C3253.95 500.488 3256.06 459.088 3256.85 416.944C3257.15 400.68 3258.24 382.418 3255.13 366.407C3252 350.319 3241.28 336.803 3238.64 323.948C3238.84 323.031 3239.03 321.167 3239.56 320.454C3244.24 314.08 3335.5 297.73 3349.93 295.264Z"/><path fill="#F14748" d="M1415.65 295.419C1415.97 295.389 1416.29 295.367 1416.61 295.353C1447.94 293.908 1478.57 304.956 1501.76 326.07C1530.89 352.83 1543.96 390.682 1545.5 429.486C1545.98 441.437 1546.14 456.691 1537.31 465.963C1533.96 469.476 1530.22 471.219 1525.5 472.052C1507.28 475.265 1486.08 473.645 1467.51 473.905L1351.67 475.713C1351.81 495.96 1355.43 517.694 1366.71 534.909C1390.88 571.79 1439.13 561.47 1473.35 546.795C1484.65 541.952 1514.54 522.959 1525.21 525.566C1527.46 526.117 1529.14 527.562 1530.22 529.561C1531.95 532.78 1530.73 536.416 1529.75 539.67C1525.46 547.222 1521.03 553.939 1515.35 560.55C1486.61 594.054 1440.67 620.518 1396.42 623.873C1365.74 626.199 1336.99 618.052 1313.59 597.754C1284.67 572.672 1270.32 534.547 1267.66 497.054C1263.93 444.413 1282.1 385.29 1316.78 345.539C1342.47 316.084 1376.52 298.062 1415.65 295.419ZM1356.85 428.276L1410.66 428.131C1420.1 428.141 1464.03 430.439 1469.45 425.211C1475.6 415.378 1472.26 395.297 1469.8 384.539C1466.26 369.12 1458.13 353.994 1444.35 345.467C1436.89 340.848 1429.66 339.665 1421.02 339.322C1404.21 341.746 1392.1 351.093 1382.04 364.507C1368.17 383.02 1361.37 405.873 1356.85 428.276Z"/><path fill="#F14748" d="M2049.62 295.309C2052.01 294.943 2055.32 294.381 2057.65 295.03C2059.55 295.559 2061.08 296.779 2061.99 298.529C2066.58 307.382 2053.14 333.434 2049.7 343.017C2060.45 331.383 2072.91 321.45 2086.64 313.557C2104.42 303.507 2147.31 289.395 2167.83 295.59C2170.23 296.313 2172.16 297.297 2173.38 299.578C2175.33 311.56 2165.41 402.512 2160.9 413.415C2159.8 416.079 2157.96 416.944 2155.45 418.001C2145.63 418.685 2136.48 399.737 2131.44 392.954C2128.05 388.407 2124.16 384.252 2119.85 380.568C2112.13 374.085 2103.01 370.142 2092.73 371.149C2070.37 373.337 2051.91 394.777 2038.73 411.084C2035.53 449.069 2033.91 487.172 2033.88 525.292C2033.99 538.526 2035.34 552.261 2037.16 565.364C2038.61 575.842 2041.72 587.569 2040.77 598.158C2040.61 599.956 2040.08 603.64 2038.54 604.842C2036.59 606.362 2034.15 607.067 2031.78 607.608C2025.28 609.087 2018.46 609.365 2011.9 610.554C1996.06 613.421 1947.16 624.974 1934.32 623.27C1933.15 623.116 1931 622.741 1930.28 621.764C1928.37 619.165 1928.19 616.636 1928.73 613.503C1929.79 607.376 1933.32 601.521 1935.26 595.568C1939.14 583.614 1942.09 571.259 1944.57 558.944C1953.6 514.1 1956.34 468.607 1957.24 422.978C1957.58 405.794 1958.4 388.126 1956.11 371.042C1955.19 364.129 1953.69 357.024 1951.19 350.493C1947.81 341.619 1938.36 330.977 1939.59 321.276C1941.41 318.651 1943.09 317.985 1946.05 316.915C1957.31 312.84 1970.44 311.221 1982.19 308.827C2004.64 304.206 2027.12 299.7 2049.62 295.309Z"/><path fill="#B3B2D8" fill-opacity="0.027450981" d="M770.859 384.739C773.177 386.523 773.815 386.453 774.167 389.937C775.4 402.145 773.648 462.26 769.109 469.242C769.303 452.586 769.751 435.934 770.453 419.292C770.828 409.756 771.855 393.79 770.859 384.739Z"/><path fill="#2F28A7" fill-opacity="0.23529412" d="M416.319 806.102L417.066 804.106C423.103 802.193 431.952 803.683 438.252 804.304L439.204 804.975L438.259 806.251C430.946 806.273 423.632 806.224 416.319 806.102Z"/></svg>